 <svg class="main-svg" version="1.1" xmlns="http://www.w3.org/2000/svg"
            xmlns:xlink="http://www.w3.org/1999/xlink" x="0px" y="0px" viewBox="0 0 1100 2953"
            style="enable-background:new 0 0 1100 2953;" xml:space="preserve">
            <style type="text/css">
                .st0 {
                    fill: none;
                    stroke: #152D35;
                    stroke-width: 1.5;
                    stroke-linecap: round;
                    stroke-linejoin: round;
                    stroke-miterlimit: 10;
                }

                .st1 {
                    fill: #152D35;
                }
            </style>
            <g id="objects">
                <g id="hat">
                    <path class="st0" d="M216.3,905.9c-5.2-1.7-10.3-3.4-15.5-5c-6.3-2-12.7-3.9-19-5.8c-4.3-1.3-8.7-2.6-13-4
        			c-3.4-1.1-6.7-0.4-9.8,0.9c-10,4-20.3,7.3-30.6,10.7c-7.7,2.5-15.4,5-22.9,7.9c-3.7,1.4-7.5,2.9-11.2,4.4
        			c-0.2,0.1-0.3,0.2-0.7,0.4c3.5,2,6.8,4,10.2,5.9c5.1,3,10.2,5.8,15.9,7.5c3.5,1.1,6.9,2.2,10.2,3.8c2.1,1,4.1,2.2,6.3,3.1
        			c1.9,0.8,3.8,1.4,5.9,1.8" />
                    <path class="st0" d="M141.8,942.4c-1.4,0-2.2,1.1-3.1,1.7c-1.3,1-2.6,1.9-4.1,2.8c-3.6-3-7.4-5.5-11.6-7.5c-1.1-0.5-2.2-1-3.3-1.3
        			c-2.1-0.6-3.9,0-5,1.7c-0.8,1.2-0.6,3.3,0.5,4.8c1.2,1.6,2.6,3,4,4.3c2.7,2.6,0.9,3.5-1.2,4.8c-3.3,2-13.3,4.5-21.8,2.9
        			c-17-3.2-27.5-15.1-29.8-36.8" />
                    <path class="st0" d="M260.5,950.3c3.7-13.9-1.3-23.4-8.1-21.1c-4.5,2.2-7.5,5.4-12.1,7.2c-3.5,1.4-7.1,2.5-10.9,2.7
        			c-4.6,0.2-8.7-1.3-12.4-4.2c-4.8-3.7-8.9-8.3-13.2-12.5c-2-1.9-4.1-3.5-6.5-4.8c-1-0.5-2.1-0.8-3.2-1.2" />
                    <path class="st0" d="M135.5,949.1c-4.2,4.4-7.9,9.2-9.7,15.2c-1.3,4.4,0.6,9.2,4.1,12.2c4.5,3.8,9.7,5.1,15.4,5.1
        			c2.3,0,4.5-0.3,6.7,0.8c2.1,1.1,3.7,2.4,3.5,5c-0.4,0.5-1-0.2-1.5,0.2" />
                    <path class="st0" d="M134.5,947.4c-4,3-7.6,6.5-9.7,11.2c-2.7,6.2-2.6,12,1.9,17.7c2,2.5,4.3,4.7,7.2,6.2c0.4,0.2,0.8,0.4,1.2,0.4
        			c3.5,0.3,6.8,1.4,10.2,2.3c2.1,0.6,4.2,0.9,6.3,1.5c1.8,0.5,3,1.6,3.8,3.2c0.6,1.2,0,1.9-1.3,1.6c-3.5-0.8-7.1-1.6-10.6-2.7
        			c-1.5-0.5-2.8-1.3-4.3-1.6" />
                    <path class="st0"
                        d="M189.6,917.9c0.4,0.7,0.2,1.1-0.3,1.7c-2.2,2.4-4,5.2-5.7,8c-0.3,0.6-0.9,1.3-0.3,2c0.7,0.7,1.4,0.3,2.2-0.1
        			c1-0.6,2.2-0.9,3.1-1.6c0.7-0.4,1.3-0.5,1.8-0.1c0.6,0.4,0.4,1.2,0.2,1.8c-0.6,1.8-1.2,3.7-2.3,5.3c-1,1.4-0.7,2,1,2.5
        			c1.3,0.3,1.2,1.2,0.8,2c-1.7,3.3-4,6.1-7.5,7.9c-5.4,2.7-11.1,4.5-17.1,5.2c-2.8,0.3-5.8,0.5-8.7,0.6c-1.3,0.1-2.6,0.2-3.8,0.3" />
                    <path class="st0"
                        d="M192.5,916.8c0.6,1.8,0.4,3.8,0.6,5.7c0.4,3.8,0.7,7.7,1,11.5c0.3,4.3-1.2,7.5-5,9.7c-0.8,0.4-1.4,1.4-2.5,1" />
                    <path class="st0" d="M134.8,947.1c0.7,3,3.1,3.9,5.5,4.8c3.2,1.3,6.6,1.6,10,1.6c1.8,0,3.4,0.7,5.2,0.6c2.9-0.2,5.8-0.5,8.7-0.9
        			c0.1,0,0.6-0.1,0.5-0.5" />
                    <path class="st0"
                        d="M217.2,906.1c-5.5,2.3-10.9,4.7-16.4,7c-2.4,1.1-4.9,2-7.2,3.2c-1.1,0.6-2.5,0.5-3.6,1.2
        			c-2.5,1.7-5.2,3.2-8,3.9c-6.6,1.7-12.3,5.4-18.5,7.8c-3,1.2-5.3,3.6-8.2,5c-1.7,0.8-3.3,1.8-4.8,2.8c-0.5,0.3-0.9,0.2-1.4,0.3" />
                    <path class="st0"
                        d="M159.9,931.1c-1.5-0.2-2.7,0.8-4,1.4c-2.7,1.3-5.8,1.7-8.5,2.8c-4.8,1.9-9,4.8-12.2,9" />
                    <path class="st0" d="M135.2,983.1c-0.1,1,0.5,1.4,1.2,1.8c3.1,2.4,5.5,5.5,7.4,9c0.4,0.8,0.7,1.6,0.9,2.5c0.3,1.2,1.3,1.6,2.3,0.8
        			c1.2-0.9,1.5-2.5,0.8-3.8c-0.9-1.7-2.6-2.6-4.2-3.7c-0.4-0.3-1-0.4-1.2-1" />
                    <path class="st0" d="M131.3,933.6c-0.1,3.8,0.1,7.6,1.7,11.2c0.2,0.3-0.1,0.5,0,0.7" />
                    <path class="st0" d="M132.5,934.4c1.1,3.2,1.6,6.6,2.3,9.8" />
                    <path class="st0"
                        d="M188.8,917.9c-0.5-0.4-1.2-0.4-1.7-0.1c-2.2,1-4.5,1.7-6.5,2.9c-0.5,0.3-1,0.5-1,1.2" />
                    <path class="st0"
                        d="M152.4,934.1c-0.1,0.4-0.3,0.8-0.7,1c-2.7,1.8-5,4-7.6,5.9c-3.1,2.1-5.6,5-8.2,7.6" />
                    <path class="st0" d="M146.4,985.8c0.1,1,1.1,1,1.7,1.5c1.3,1,2.9,1.8,3.5,3.5" />
                    <path class="st0"
                        d="M152.4,991.5c0.3,1,0.8,1.9,0.8,3.2c-1.4-0.2-2.6-0.9-3.8-1.5c-0.7-0.3-1.3-1-2.2-0.8" />
                    <path class="st0" d="M135,944.6c-0.1,0.6-0.3,1.2,0,1.8" />
                </g>
                <g id="car">
                    <g>
                        <g>
                            <path class="st1"
                                d="M326.3,1292.5c-4.9,2.9-11.5,1.9-15.5-2c-0.8-0.8-2.5-2.5-2.2-3.8c0.3-1.7,3.8-0.7,4.8-0.4
        					c1.3,0.4,2.4,1.2,3.5,1.9c0.7,0.4,2.5,1.4,2.4,2.3c0.6-0.2,1.1-0.5,1.7-0.7c-2.2-2.3-4.4-4.9-4.4-8.2c0.1-3.1,0.1-6.9-1.7-9.7
        					c-3.6-5.3-11.2-6.8-17.1-7.6c-3.9-0.5-7.8-0.6-11.7-0.1c-1.6,0.2-3.3,0.3-4.4,1.7c-0.9,1.1-1.1,2.5-1.2,3.9
        					c-0.4,4.2-0.6,8.4-0.7,12.6c-0.1,2.2-0.1,4.3-0.1,6.5c0,1.5,0,3.1,1.3,4.1c1.4,1.1,3.4,0.8,5.1,0.7c2.3-0.1,4.6-0.2,6.9-0.3
        					c4.7-0.2,9.5-0.4,14.2-0.6c1.3-0.1,1.3-2,0-2c-4.6,0-9.3-0.1-13.9-0.1c-2.3,0-4.6,0-7,0c-1.8,0-4.2-0.4-5.8,0.6
        					c-2.6,1.6-2.1,5.4,0.1,7c3.1,2.3,7,0.8,10.1-0.7c0.8-0.4,0.6-1.6-0.2-1.8c-1.5-0.4-3.1-0.7-4.6-0.9c-1.4-0.2-2.9-0.6-4.3-0.5
        					c-3,0-2.7,3-2.6,5.2c0.2,6.5,0.4,13,0.6,19.5c0,1.7,0.1,3.3,0.1,5c0,1.4,0.1,2.7,0.8,3.9c1.1,2.1,3.6,3.6,5.7,4.6
        					c4.6,2.2,9.9,2.5,14.9,1.8c6.7-1,12.9-4.1,18.9-7.1c-0.5-0.1-0.9-0.2-1.4-0.4c0.5,0.6-4.7,1.9-5.2,2c-2,0.5-4.1,0.9-6.1,1.2
        					c-4,0.6-8.1,0.9-12.2,0.9c-8.3,0.1-16.5-0.6-24.7-1.4c-8.3-0.8-16.7-1.7-25-1.8c-4.1-0.1-8.1,0-12.2,0.4c-2,0.2-3.9,0.4-5.9,0.7
        					c-1.8,0.3-4,0.5-5.8,1.2c-1.3,0.6-2,1.9-1.4,3.2c0.6,1.4,2.1,2.3,3.4,2.7c4.1,1.3,8.5,1.6,12.8,1.9c9.2,0.6,18.4,0.8,27.7,0.8
        					c18.5-0.1,36.9-1.5,55.2-4c1.1-0.1,2.1-0.3,3.2-0.5c1.1-0.2,2.3-0.2,3.3-0.6c1.4-0.6,1.9-2,1.8-3.5c-0.2-2-0.8-3.9-1.2-5.8
        					c-0.5-2.3-0.9-4.6-1.2-6.9c-0.6-4.5-1-9.1-1-13.7c0-2-0.6-5,1.8-5.7c2-0.6,4.4-0.6,6.5-0.6c2.3-0.1,4.5,0,6.7,0.2
        					c1.3,0.1,1.3-1.9,0-2c-4.3-0.4-8.8-0.5-13,0.3c-1.6,0.3-3.1,1.1-3.6,2.6c-0.7,1.8-0.4,4-0.4,5.9c0.1,4.4,0.4,8.8,1,13.2
        					c0.3,2.1,0.7,4.3,1.1,6.4c0.4,2,1.2,4.1,1.3,6.2c0.1,1.3-0.6,1.5-1.8,1.7c-1.1,0.2-2.3,0.3-3.4,0.5c-2.3,0.3-4.7,0.7-7,0.9
        					c-4.5,0.6-9.1,1.1-13.6,1.5c-9,0.8-18.1,1.4-27.1,1.6c-9.1,0.2-18.3,0.2-27.4-0.2c-4.5-0.2-9-0.3-13.4-0.8
        					c-2.2-0.2-4.4-0.6-6.5-1.1c-0.9-0.2-1.8-0.5-2.5-1c-0.2-0.2-0.8-0.6-0.8-1c0-0.5,0.9-0.6,1.2-0.7c15.9-3.8,32.8-1.5,48.8,0
        					c8.1,0.8,16.3,1.4,24.5,1.2c3.9-0.1,7.8-0.4,11.6-1c2-0.3,4-0.7,5.9-1.2c1.7-0.4,3.8-0.7,5.3-1.7c1.1-0.7,2-2.1,1.1-3.3
        					c-0.3-0.5-0.8-0.6-1.4-0.4c-8.8,4.3-18.6,9.1-28.6,6.4c-2.2-0.6-4.3-1.6-6.2-2.9c-0.9-0.7-1.8-1.5-2.2-2.6
        					c-0.5-1.4-0.3-3-0.4-4.4c-0.2-5.6-0.3-11.1-0.5-16.7c0-1.6-0.1-3.2-0.1-4.7c0-0.8-0.1-1.7-0.1-2.5c0-0.4-0.2-1.3,0.1-1.6
        					c0.3-0.3,1.3-0.1,1.7,0c0.9,0.1,1.7,0.2,2.5,0.4c1.6,0.3,3.1,0.6,4.6,0.9c-0.1-0.6-0.2-1.2-0.2-1.8c-2.3,1.1-6.1,2.9-8.3,0.5
        					c-0.8-0.8-1-2.4-0.1-3.3c1-0.9,3.5-0.4,4.7-0.4c7,0.1,14.1,0.1,21.1,0.2c0-0.7,0-1.3,0-2c-7.3,0.3-14.7,0.6-22,0.9
        					c-0.8,0-1.6,0.1-2.3-0.1c-0.9-0.3-1.1-0.9-1.1-1.8c-0.1-1.9,0-3.9,0.1-5.9c0.1-3.6,0.3-7.3,0.5-10.9c0.1-1.6,0-3.3,0.5-4.8
        					c0.7-2,2.9-1.9,4.7-2c3.5-0.3,7-0.2,10.5,0.3c5.2,0.7,12.7,2.1,15.5,7.1c0.9,1.5,0.9,3.3,1,5.1c0.1,1.6-0.2,3.3,0.1,4.9
        					c0.5,3,2.9,5.5,4.9,7.7c0.6,0.7,1.7,0.1,1.7-0.7c0.1-2.4-3.3-4-5-5c-1.5-0.9-2.9-1.3-4.6-1.6c-1.5-0.2-3.3-0.4-4.4,0.8
        					c-2.2,2.4,0.7,6,2.5,7.6c2.2,2,5,3.2,7.9,3.6c3.3,0.5,6.7-0.1,9.6-1.8C328.4,1293.6,327.4,1291.8,326.3,1292.5L326.3,1292.5z" />
                        </g>
                    </g>
                    <g>
                        <g>
                            <path class="st1"
                                d="M341.2,1341.7c-2.9,0.1-5.1-2.8-6.5-5c-1.6-2.3-2.7-5-3.1-7.8c-0.9-5.5,1.1-11.3,5.7-14.6
        					c4.1-3,9.6-3.7,14.2-1.5c4.7,2.2,7.9,6.7,8.4,11.8c0.3,3.3-0.2,6.6-1.1,9.8c-0.8,2.7-2.2,7.7-6,7.1c0.1,0.6,0.3,1.1,0.4,1.7
        					c4.8-4.2,8.2-10.3,8-16.8c-0.1-5.6-3.3-11.2-8.3-13.9c-5.7-3.1-12.8-1.4-18,2.1c-5.2,3.5-8.7,9.6-7.5,16
        					c0.5,2.6,1.7,5.4,3.3,7.5c1.9,2.6,4.7,4.3,7.6,5.7c1.2,0.5,2.2-1.2,1-1.7c-2.3-1-4.6-2.3-6.3-4.3c-1.3-1.5-2.2-3.3-2.9-5.1
        					c-2-5.6-0.3-11.3,4.1-15.1c4.2-3.6,10.9-6.1,16.3-4c4.7,1.9,8,6.7,8.5,11.6c0.7,6.4-2.7,12.5-7.4,16.6c-0.5,0.5-0.3,1.5,0.4,1.7
        					c3.3,0.6,5.8-1.8,7.1-4.6c1.4-3.2,2.3-6.8,2.6-10.3c0.5-6.4-1.8-12.6-7.3-16.3c-4.9-3.4-11.3-3.6-16.6-0.9
        					c-5.8,3-9,9.1-8.8,15.6c0.1,3.8,1.5,7.5,3.5,10.7c1.8,2.8,4.6,6.1,8.2,6C342.5,1343.6,342.5,1341.6,341.2,1341.7L341.2,1341.7z" />
                        </g>
                    </g>
                    <g>
                        <g>
                            <path class="st1" d="M360,1335.6c3.9-0.1,7.8,0.2,11.7-0.3c1.7-0.2,3.4-0.5,5.2-0.7c1.2-0.1,2.8,0,3.6-1.1
        					c1.1-1.6,1.3-3.8,0.5-5.5c-0.7-1.5-2.4-1.9-3.9-1.6c-2.1,0.3-4.5,0.3-6.5-0.3c-2.9-1-4.1-3.5-2.7-6.3c0.7-1.4,3.3-5.4,5.3-4.4
        					c2.2,1.1,2,4.8,1.5,6.8c-0.5,1.7-2.6,5.6-4.9,4.6c-2.5-1.1,0.1-6.3,0.9-7.9c0.4-0.9,1.3-3.1,2.5-2.5c0.9,0.5,1.5,1.5,2.5,1.9
        					c1.9,0.7,3.4-0.3,3.4-2.3c0-2.4-0.2-5.1-0.9-7.4c-0.6-1.8-1.8-3.4-3.8-3.7c-1.4-0.2-2.7,0.3-4,0.7c-1.4,0.4-2.8,0.6-4.2,0.2
        					c-1.5-0.4-2.8-1.2-4-2.1c-0.4-0.3-1.7-1-1.9-1.6c-0.3-0.8,0.6-0.9,1.2-1c2.5-0.4,5.5-0.8,7.8,0.4c2.3,1.2,2.9,4,5.1,5.3
        					c0.6,0.4,1.6-0.1,1.5-0.9c-0.8-6.3-4.8-12.1-10.6-14.8c-7.1-3.3-15.1-1.6-22.6-2.3c-1.3-0.1-1.3,1.9,0,2
        					c6.9,0.7,14.2-0.9,20.8,1.7c5.5,2.2,9.6,7.5,10.4,13.4c0.5-0.3,1-0.6,1.5-0.9c-1.1-0.7-1.7-1.9-2.5-3c-0.7-1-1.6-1.9-2.7-2.4
        					c-2.3-1.2-5-1.1-7.5-0.8c-1.9,0.2-4.9,0.6-4.4,3.3c0.2,1.2,1.3,1.9,2.2,2.6c1.2,0.9,2.4,1.7,3.8,2.3c1.1,0.5,2.4,0.8,3.6,0.9
        					c1.5,0,2.8-0.5,4.2-0.9c1.3-0.4,2.7-0.5,3.6,0.8c0.7,1,0.9,2.3,1.1,3.5c0.2,1.4,0.6,3.1,0.4,4.5c-0.1,0.8-0.6,0.5-1.2,0.1
        					c-0.5-0.4-0.9-0.9-1.4-1.2c-2.6-1.9-4.3,0.7-5.4,2.8c-0.6,1.3-1.2,2.6-1.6,4c-0.5,1.4-0.9,3-0.5,4.5c0.6,2.4,3.1,3.4,5.3,2.4
        					c4.4-2,6.3-8.9,3.8-13c-3.4-5.6-9.3,1-10.4,5c-0.8,2.6,0.2,5,2.4,6.5c2.1,1.4,4.5,1.6,6.9,1.6c0.7,0,1.4,0,2.2-0.1
        					c0.6-0.1,1.3-0.3,1.9,0.1c0.6,0.4,0.7,1.6,0.6,2.3c-0.1,0.4-0.2,0.7-0.3,1.1c-0.3,0.3-0.3,0.5,0,0.4c0,0-0.1,0-0.1,0
        					c-0.3,0.2-0.8,0.1-1.1,0.2c-0.9,0.1-1.7,0.2-2.6,0.3c-2.5,0.3-5,0.7-7.5,0.8c-2.6,0-5.2-0.1-7.8,0
        					C358.7,1333.7,358.7,1335.7,360,1335.6L360,1335.6z" />
                        </g>
                    </g>
                    <g>
                        <g>
                            <path class="st1" d="M372.3,1299c-2.4-0.1-4.4-1.7-6.4-2.6c-2-0.9-4.1-1.7-6.3-2.2c-2.2-0.5-4.4-0.8-6.6-0.8
        					c-1.7,0-4.2-0.3-5.5,1c-0.6,0.6-0.2,1.7,0.7,1.7c6-0.3,12.6-0.1,17.4,4c1,0.8,2.4-0.6,1.4-1.4c-5.3-4.5-12.2-4.8-18.8-4.5
        					c0.2,0.6,0.5,1.1,0.7,1.7c0.6-0.7,2.2-0.5,3-0.5c1.1,0,2.1,0,3.2,0.1c2,0.2,4.1,0.6,6,1.2c2,0.6,3.8,1.4,5.7,2.4
        					c1.8,1,3.5,1.9,5.6,2C373.6,1301,373.6,1299,372.3,1299L372.3,1299z" />
                        </g>
                    </g>
                    <g>
                        <g>
                            <path class="st1" d="M279.1,1318c-0.4,2.7-0.8,5.9-2.8,8c-1.2,1.3-2.9,1.7-4.6,1.8c-1.9,0.1-3.9,0.2-5.9,0.2
        					c-4.1,0-8-0.8-12-1.6c-3.8-0.8-7.6-0.9-11.5-0.9c-3.7,0-7.9,0-11.2-1.9c-3.3-1.9-3.8-7.1-3.9-10.5c-0.2-3.8,0.3-7.7,0.8-11.5
        					c0.5-4,0.8-8.1,0.9-12.1c0.1-4.1,0.1-8.2,0-12.2c-0.1-1.8-0.3-3.6-0.3-5.3c0-1.1,0.6-2.3,1.2-3.1c2.2-3.1,6.2-4.1,9.8-4.4
        					c4.1-0.4,8.2-0.1,12.3,0c4.1,0.2,8.1,0.4,12.2,0.6c1.9,0.1,3.9,0.3,5.8,0.7c1.5,0.3,3.7,0.7,4.6,2.1c0.5,0.8,0.4,1.9,0.4,2.9
        					c0,1,0,2,0,3c0,1.7,0,3.4,0,5.1c0,1.7,0,3.3,0,5c0,0.9,0,1.7,0,2.6c0,0.7,0.3,2.3-0.3,2.8c-0.5,0.4-1.7,0.4-2.3,0.6
        					c-1,0.2-2,0.3-2.9,0.4c-1.8,0.2-3.6,0.3-5.4,0.3c-3.7,0-7.4-0.3-11.1-0.7c-7.2-0.7-14.5-1.7-21.8-0.8c-1.7,0.2-3.5,0.5-5.1,1
        					c-0.9,0.2-1,1.7,0,1.9c3.8,0.9,7.5,0.4,11.3,0.1c3.9-0.4,7.8-0.2,11.7,0.3c4,0.5,7.9,0.9,11.9,0.8c4.1,0,8.2-0.3,12.3-0.6
        					c1.3-0.1,1.3-2.1,0-2c-3.9,0.3-7.8,0.5-11.8,0.6c-4,0-8-0.3-11.9-0.8c-3.8-0.4-7.6-0.7-11.5-0.4c-3.8,0.3-7.7,1-11.5,0.1
        					c0,0.6,0,1.3,0,1.9c7.9-2,16.1-1.1,24.2-0.3c7.8,0.8,16.1,1.8,23.9-0.3c1.5-0.4,2.3-1.2,2.4-2.8c0.1-2,0-4.1,0-6.2
        					c0-3.9,0-7.7,0-11.6c0-1.8-0.1-3.6-1.5-4.9c-1.2-1.1-2.9-1.6-4.5-1.9c-4.2-0.9-8.6-0.9-12.9-1.1c-4.6-0.2-9.2-0.5-13.7-0.5
        					c-4,0-8.3,0.2-12,2c-2.7,1.3-5.1,3.9-5.6,7c-0.1,0.4,0,0.9,0,1.3c0.1,1.2,0.2,2.3,0.2,3.5c0.1,2.2,0.2,4.4,0.2,6.6
        					c0,4.6-0.1,9.1-0.5,13.7c-0.4,4.4-1,8.7-1.3,13.1c-0.2,4,0.1,8.2,1.7,12c1.6,3.8,5.2,5.1,9.1,5.7c4.2,0.6,8.4,0.2,12.5,0.5
        					c4.3,0.3,8.5,1.7,12.8,2.2c2.2,0.2,4.5,0.3,6.7,0.2c2,0,4.1,0,6.1-0.5c3.1-0.8,5-3.3,6-6.3c0.5-1.5,0.8-3.1,1-4.7
        					C281.2,1317.2,279.3,1316.7,279.1,1318L279.1,1318z" />
                        </g>
                    </g>
                    <g>
                        <g>
                            <path class="st1"
                                d="M227.8,1290.7c-0.9-6.2-1.4-12.4-1.5-18.6c0-1.5,0-2.9,0-4.4c0-1.2,0.3-2.6-0.3-3.7c-0.5-1-1.6-1.2-2.5-1.4
        					c-1.6-0.3-3.1-0.6-4.7-0.8c-5.8-0.8-11.6-0.9-17.5-0.7c-5.8,0.2-11.6,0.5-17.4,1.3c-2.5,0.4-4.7,1.4-6.5,3.2
        					c-0.8,0.8-1.5,1.7-2.1,2.6c-0.5,0.7-1,1.3-1.2,2.2c-0.4,3,3.3,4.8,4.5,7.1c0.3,0.5,0.4,1,0.2,1.5c-0.4,1.3-0.9,2.5-1.2,3.9
        					c-0.5,2.5-0.7,5.4,0.1,7.9c0.7,2.5,3.2,1.6,5,0.9c0.8-0.3,1.9-0.9,2.5-1.2c0.7-0.2,1.4-0.2,2.1-0.2c1.6-0.1,3.3-0.1,4.9-0.1
        					c3.5-0.1,6.9-0.1,10.4,0c6.9,0.1,13.9,0.4,20.8,0.9c1.3,0.1,1.3-1.9,0-2c-11.2-0.8-22.4-1.1-33.7-0.8c-1.6,0-3.4-0.1-4.9,0.3
        					c-0.7,0.2-1.3,0.7-2,1c-0.3,0.1-0.7,0.3-1.1,0.4c-0.4,0.1-1.3,0.6-1.8,0.5c-0.4-0.1-0.2,0-0.4-0.4c-0.1-0.3-0.1-0.6-0.2-0.9
        					c-0.1-0.7-0.2-1.4-0.2-2.1c0-2.7,0.7-4.9,1.5-7.4c0.9-2.8-1.7-4.9-3.3-6.8c-0.7-0.8-1.6-1.7-1-2.8c1.1-1.8,2.8-3.8,4.7-4.8
        					c2.3-1.2,5.2-1.2,7.7-1.4c2.7-0.2,5.4-0.5,8.2-0.6c5.4-0.3,10.9-0.5,16.3-0.1c3.2,0.2,6.3,0.6,9.4,1.2c0.8,0.2,1.5,0.2,1.6,1.1
        					c0.1,0.7-0.1,1.6-0.1,2.4c0,1.6,0,3.1,0,4.7c0.1,6.2,0.6,12.5,1.5,18.6C226.1,1292.5,228,1291.9,227.8,1290.7L227.8,1290.7z" />
                        </g>
                    </g>
                    <g>
                        <g>
                            <path class="st1" d="M173.3,1295.7c-0.6-1.5-0.8-3.8,0.4-5c1.4-1.5,2.6,1,3,2.1c0.6,1.7,0.9,3.6,1,5.5c0,0.5,0.1,1,0.1,1.5
        					c0,0.4-0.1,1,0,1.4c0,0.2,0,0.2,0.1,0.1c0.2-0.1,0.1-0.1-0.1-0.1c-0.2,0-0.4,0-0.6,0.1c-0.6,0-1.1,0-1.7,0c-1.3-0.1-1.3,1.9,0,2
        					c1,0,2.2,0.1,3.2-0.2c1-0.4,1.1-1.4,1.1-2.3c-0.1-2.1-0.2-4.3-0.6-6.3c-0.4-1.8-1.1-4-2.5-5.3c-1.6-1.4-3.8-0.8-4.9,1
        					c-1.3,2-1.1,4.7-0.1,6.7c0.2,0.5,0.9,0.6,1.4,0.4C173.4,1296.7,173.5,1296.2,173.3,1295.7L173.3,1295.7z" />
                        </g>
                    </g>
                    <g>
                        <g>
                            <path class="st1" d="M189.2,1339.1c3.8,5.5,12.2,5.7,17.8,3.3c1.2-0.5,0.2-2.2-1-1.7c-2.6,1.1-5.7,1.5-8.5,1
        					c-2.5-0.4-5.1-1.5-6.6-3.6C190.2,1337,188.4,1338,189.2,1339.1L189.2,1339.1z" />
                        </g>
                    </g>
                    <g>
                        <g>
                            <path class="st1" d="M335.5,1340.8c1.5,2.2,4.2,2.8,6.7,3.1c3.1,0.3,6.3,0.2,9.2-0.9c1.2-0.4,0.7-2.4-0.5-1.9
        					c-2.6,1-5.3,1-8,0.9c-1.9-0.1-4.5-0.4-5.7-2.1C336.4,1338.7,334.7,1339.7,335.5,1340.8L335.5,1340.8z" />
                        </g>
                    </g>
                    <g>
                        <g>
                            <path class="st1"
                                d="M196.2,1340.9c-4.7-2.1-7.4-6.7-8.3-11.5c-1-5.3-0.1-11.1,4.4-14.5c3.9-2.9,9.3-3.5,13.7-1.5
        					c4.5,2,7.8,6.2,9.2,10.9c1.7,5.9,0.1,13.9-7,14.9c0.3,0.6,0.5,1.2,0.8,1.8c4.8-2.7,7.3-7.8,8-13.1c0.7-5.6-0.6-11.6-5.4-15
        					c-4.4-3.1-10.1-3.3-14.9-1.1c-5.1,2.3-9.1,7.2-10.8,12.5c-1.8,5.5-1.3,12.2,3.1,16.4c0.5-0.5,0.9-0.9,1.4-1.4
        					c-2.4-2.2-2-6-4.6-8.1c-1.3-1.1-3.4-1.6-5-1.8c-0.1,0-0.2-0.1-0.3-0.1c-0.4-0.3-0.3,0.1,0.1,1c0,0,0-0.1,0.1-0.1
        					c0.3-0.4,0.2-0.9-0.2-1.3c-0.6-0.6-2.2-0.3-2.9-0.3c-2.1,0.1-4.4,0.4-6.2-0.7c-2-1.2-2-3.5-0.7-5.2c1.3-1.7,3.5-2.5,5.4-3.2
        					c1.1-0.4,0.9-1.9-0.3-2c-2.9-0.2-5-3.1-5-5.9c-0.1-3.2,2-6,4.5-7.8c0.5-0.3,0.6-0.8,0.4-1.4c-5.8-11.8-4.4-26.5,3.3-37.1
        					c0.8-1-1-2-1.7-1c-8.1,11.2-9.4,26.7-3.3,39.1c0.1-0.5,0.2-0.9,0.4-1.4c-3.2,2.3-5.9,6.1-5.5,10.2c0.4,3.7,3.2,6.9,7,7.2
        					c-0.1-0.7-0.2-1.3-0.3-2c-2.2,0.8-4.6,1.7-6.2,3.6c-1.4,1.6-2.1,4-1.2,6.1c1,2.1,3.2,3.1,5.3,3.4c1.4,0.2,2.7,0.1,4.1,0
        					c0.5,0,1.1-0.1,1.6-0.1c0.6,0,0.3,0.1-0.1-0.2c-0.1-0.2-0.2-0.5-0.3-0.7c0-0.1,0.2-0.6,0.1-0.3c-0.1,0.2-0.2,0.3-0.1,0.6
        					c0,0.4,0.3,0.8,0.6,1c1.2,0.9,3.1,0.7,4.4,1.4c1.7,0.8,2.3,2.6,2.9,4.2c0.6,1.6,1.2,3.1,2.4,4.2c0.9,0.9,2.3-0.5,1.4-1.4
        					c-7.3-7.1-2.3-19.7,5.1-24.5c4-2.6,9.1-3.3,13.4-1.2c4.9,2.4,6.5,7.3,6.3,12.5c-0.2,5.2-2.4,10.6-7.2,13.2
        					c-1.1,0.6-0.3,2,0.8,1.8c6.6-0.9,9.7-7.9,9.1-13.9c-0.6-5.9-3.9-11.4-8.9-14.6c-4.7-3-10.6-3.3-15.6-0.8
        					c-5.8,2.9-8.2,8.9-7.8,15.2c0.5,6.3,3.6,12.8,9.6,15.5C196.3,1343.1,197.3,1341.4,196.2,1340.9L196.2,1340.9z" />
                        </g>
                    </g>
                    <g>
                        <g>
                            <path class="st1" d="M178.6,1265.8c1.4-1.6,2.6-3.2,3.9-4.9c0.8-1.1,1.6-2.2,2.7-2.9c1.4-0.9,3.2-1.2,4.8-1.4
        					c3.1-0.3,6.2-0.3,9.3-0.3c6.2,0.1,12.3,0.5,18.5,0.6c5.9,0.1,11.8,0.1,17.7,0.3c11.7,0.3,23.4,1,35.1,1.6
        					c9.6,0.5,19.2,0.9,28.8,1.3c1.3,0.1,1.3-1.9,0-2c-15.4-0.6-30.8-1.4-46.2-2.2c-5.1-0.3-10.2-0.4-15.3-0.6c-6-0.2-12-0.3-18-0.3
        					c-6.2-0.1-12.4-0.4-18.6-0.6c-3.6-0.1-7.2-0.1-10.7,0.2c-2,0.2-4.1,0.4-6,1.4c-1.4,0.7-2.4,1.9-3.3,3.1
        					c-1.4,1.8-2.7,3.7-4.2,5.4C176.3,1265.3,177.7,1266.8,178.6,1265.8L178.6,1265.8z" />
                        </g>
                    </g>
                    <g>
                        <g>
                            <path class="st1"
                                d="M299.5,1260.2c7.8-0.5,14.8,5.2,20.3,10c6.1,5.3,12,11.1,17.8,16.8c1.3,1.3,3.1,2.6,4,4.3
        					c0.4,0.7,0.6,1.6,0,2.3c-0.6,0.6-1.7,0.7-2.5,0.8c-2.1,0.3-4.2,0.5-6.3,0.5c-1.9,0-4,0.1-5.8-0.4c-1.9-0.5-2.8-2.3-3.7-3.9
        					c-0.9-1.7-1.8-3.4-2.6-5.2c-0.8-1.9-1.6-3.8-2.2-5.8c-0.1-0.4-0.3-0.8-0.4-1.2c-0.1-0.5-0.2-0.6,0.3-0.6c0.7,0,1.8,0.8,2.3,1.1
        					c3.3,1.7,6.1,4.1,8.4,7.1c1.1,1.5,2.1,3,2.8,4.7c0.2,0.4,0.7,1.1,0.2,1.5c-0.3,0.2-1,0.3-1.4,0.3c-1.1,0.2-2.3,0.2-3.5,0.1
        					c-1.3-0.1-1.3,1.9,0,2c1.9,0.2,4.6,0.2,6.2-0.9c1.8-1.3,0.4-3.6-0.3-5c-1.8-3.5-4.5-6.6-7.6-9c-1.6-1.2-8.3-6.3-9.4-2.3
        					c-0.2,0.7,0,1.5,0.2,2.3c0.4,1.3,0.8,2.5,1.3,3.7c0.9,2.2,1.8,4.4,2.9,6.6c0.9,1.9,1.9,4.1,3.5,5.5c1.7,1.5,4,1.6,6.1,1.7
        					c2.5,0.1,5,0,7.5-0.3c1.8-0.2,4.4-0.3,5.6-1.9c1.1-1.5,0.7-3.5-0.3-4.9c-1.4-1.9-3.4-3.5-5.1-5.2c-3.8-3.7-7.6-7.3-11.4-10.9
        					c-3.9-3.7-7.9-7.3-12.4-10.4c-4.3-2.9-9.3-5.4-14.7-5.1C298.2,1258.3,298.2,1260.3,299.5,1260.2L299.5,1260.2z" />
                        </g>
                    </g>
                </g>
                <g class="st2" id="notebook">
                    <path class="st0" d="M196.1,1657.6c42.9,0.9,85.8,0.1,128.6,0.4c0.4-1.7,0.4-3.1,0.4-4.6c0-8-0.1-16.1,0-24.1
        			c0.1-5.7,0-11.3,0.2-17c0.3-8.5,0.1-17.1,0.1-25.6c0-1.4-0.2-2.7-0.4-4.1c-0.1-1.6-1-2.4-2.6-2.6c-3.5-0.4-7.1-0.1-10.7-0.1
        			c-0.4,0-0.9,0.1-1.3,0.1c-8.1,0.1-16.2,0.1-24.3,0.2c-8.6,0.1-17.2,0.2-25.8,0.2c-8.4,0-16.7-0.3-25.1-0.3
        			c-4.4,0-8.9,0.2-13.3,0.1c-5.6-0.1-11.1-0.5-16.6-0.7c-2.2-0.1-4.4,0.1-6.5,0.4c-2,0.2-3.2,1.3-3.2,3.5c0,9.6-0.1,19.2-0.2,28.8
        			c-0.1,12.1-0.2,24.3-0.1,36.4c0,3.1-0.3,6.3,0.5,9.3c0.1,0.4,0.4,0.6,0.4,0.9" />
                    <path class="st0" d="M260.6,1583.6c-1.4,1.7-3.5,1.4-5.2,1.4c-16.3,0.1-32.7,0.1-49,0.1c-1.8,0-3.6-0.2-5.6-0.3
        			c-0.1,2.6-0.3,5.2-0.4,7.7c-0.1,5.5-0.2,11.1-0.2,16.6c0.1,5.5,0.5,11.1,0.5,16.6c0,6.9-0.2,13.8-0.3,20.7c0,1.9,0.2,3.9,0.2,5.8
        			c0,1,0.4,1.3,1.3,1.3c0.4,0,0.7,0,1.1,0c18.6,0,37.3,0,55.9,0c5.4,0,10.8-0.3,16.3-0.1c13.6,0.3,27.2,0.5,40.8,0.3
        			c3.5-0.1,6.3,0.6,8.8,2.9" />
                    <path class="st0" d="M181,1670.8c0.9,0.9-6.5,0.9-5.3,0.9c20.4,0,39.4-0.3,59.8,0.1c31.5,0.6,63.1,0.1,94.6,0.3
        			c0.7,0,1.4,0.1,2.1-0.2" />
                    <path class="st0" d="M175.7,1669.3c0.4,1-0.5,1.1,0.4,1.1c16.1,0.1,32.3,0.3,48.4,0.1c27.4-0.3,54.7-0.1,82.1-0.1
        			c4.7,0,9.3,0.1,14,0.1c3.6,0,7.1,0,10.7,0" />
                    <path class="st0"
                        d="M260.8,1584.4c1.1,0.9,2.3,0.7,3.6,0.7c18.4,0,36.8,0,55.2,0c0,22.7,0,45.4,0,68.2" />
                    <path class="st0" d="M195.7,1657.6c-6.9,2.6-13,6.9-19.4,10.5c-5.5,3.1,175.1-5.3,155-5" />
                    <path class="st0" d="M332.8,1663c4.1,2.1,8.2,4.2,12.5,6c0.5,0.2,0.9,0.6,1.3,0.9c0.4,0.3,1.2,0.3,0.9,1.1c-0.2,0.7-0.8,0.8-1.5,1
        			c-3.7,0.7-7.5,0.2-11.2,0.3c-0.6,0-1.2-0.1-1.9,0.1" />
                    <path class="st0"
                        d="M344.7,1669.1c0.1,1.5-1.2,1.3-2.1,1.5c-2.9,0.5-5.9,0.2-8.8,0.2c-0.7,0-1.5,0-2.2,0" />
                    <path class="st0" d="M200.4,1653.5c-0.5,0.3-1,0.6-1.5,0.9" />
                </g>
                <g id="board" class="st3">
                    <path class="st0" d="M816.9,2025.6c0.1-0.3,0-0.8,0.2-1c1.3-2,1.8-4.4,2.4-6.6c1.3-4.6,2.2-9.4,3-14.1c0.4-2.5,0.8-5,1-7.4
        			c0.3-2.7,0.7-5.3,0.9-8c0.3-2.9,0.3-5.8,0.6-8.7c0.3-3.4,0.3-6.9,0.6-10.3c0-0.2,0-0.4,0-0.7c0-3.2,0.1-6.3,0.2-9.4
        			c0-3.7-0.2-7.4-0.2-11.2c0-2.2-0.1-4.4-0.3-6.6c-0.2-2.5-0.3-5-0.5-7.5c-0.2-2.7-0.5-5.4-0.9-8c-0.5-3.5-1-7-1.7-10.4
        			c-0.9-4.4-2.2-8.8-3.8-13c-2.1-5.5-4.7-10.6-8.6-15.1c-0.5-0.6-1.1-1.2-1.6-1.8c-0.7-0.8-1.6-0.8-2.4,0c-2.1,2.2-4,4.6-5.5,7.2
        			c-3.2,5.3-5.3,11-7,17c-1,3.7-1.9,7.5-2.5,11.3c-0.6,3.6-1.1,7.3-1.4,11c-0.3,3.3-0.6,6.5-0.8,9.8c-0.2,3-0.3,6-0.4,9
        			c-0.1,3.4-0.2,6.9-0.2,10.3c0.1,4.5,0.2,9,0.4,13.5c0.2,3.7,0.4,7.4,0.8,11.1c0.3,2.8,0.6,5.6,0.9,8.4c0.4,3.4,0.9,6.9,1.4,10.3
        			c0.4,2.5,0.7,4.9,1.5,7.3" />
                    <path class="st0" d="M792.9,2013.1c0.1,0.3,0.3,0.5,0.3,0.7c1.7,6.9,3.1,13.4,6.5,19.7c1,1.5,1.7,3.1,3.4,3.8
        			c2.7,1,5.7,1.1,8.2-0.2c2.1-1.1,3.1-3.8,4-6.1c0.4-1,1.1-2,2.1-1.9c61.5,4.7,1,55.4,0.4,58.4" />
                    <path class="st0" d="M806.9,1888.4c-3.9,4.3-6.2,9.4-8.3,14.6c-4.2,11.3-6.1,22.9-7.1,34.9c-1.7,24-0.6,47.5,3.4,71.8
        			c0,1-1,1.3-1.5,1.9c-0.4,0.4-0.6,1-0.8,1.5c-0.4,0.4-0.8,0.6-1.1,1c-2.3,2.7-5.3,5.2-8.9,4.7" />
                    <path class="st0"
                        d="M806.9,1888c0.6,0.9,1.3,1.8,1.9,2.8c3.5,5,6.3,10.4,8.3,16.1c1.2,3.5,2,7.1,2.6,10.8
        			c0.6,3.4,1.1,6.9,1.5,10.3c0.4,3.3,0.8,6.6,1.1,9.9c0.2,2.3,0.3,4.7,0.5,7.1c0.5,6.9,0.5,13.9,0.4,20.8c0,3.3-0.1,6.6-0.3,9.8
        			c-0.2,3.6-0.4,7.3-0.8,10.9c-0.3,3.2-0.6,6.4-1.1,9.6c-0.4,3-0.8,5.9-1.2,8.9c0,0.1,0,0.2-0.1,0.4c-0.7,1-0.5,2.2-0.5,3.3" />
                    <path class="st0" d="M815.4,2008.9c0.3-0.3,0.4-0.6,0.4-1c-0.1-2.2-0.2-4.4-0.9-6.5c-0.2-0.5,0.1-1.1-0.4-1.5
        			c-1.1-1-2.1-2.1-3.7-2.5c-2.7-0.7-5.4-0.7-8,0.1c-2.4,0.7-3.6,2.4-4.1,4.8c-0.1,0.6-0.3,1.3-0.5,1.9c0,0.1,0,0.3-0.1,0.4
        			c-1.4,1.1-1.6,3-2.8,4.3c-0.1,0.1-0.2,0.1-0.3,0.2" />
                    <path class="st0" d="M807.2,2032.5c-0.3-0.5,0-1-0.1-1.5c-0.2-1.4-0.9-2.7-1.1-4.2c-0.4-2.7-1.1-5.4-1-8.2c0-0.9,0.4-1.8,0.8-2.6
        			c0.3-0.6,1.5-0.4,2,0.1c1,1.2,1.2,2.6,1,4c-0.3,2.9-0.8,5.8-1.1,8.7c-0.1,0.5-0.4,0.8-0.6,1.2" />
                    <path class="st0"
                        d="M794.7,2010.7c0.8,1,0.7,2.2,0.9,3.3c0.6,2.9,1.2,5.8,2.2,8.6c0.3,0.9,0.9,1.7,0.8,2.7" />
                    <path class="st0" d="M807.7,2015.8c0.6-0.7,1.4-0.4,2.1-0.2c2.8,0.8,4.6,2.7,5.7,5.3c0.4,0.9,0.7,1.7,1,2.7
        			c0.1,0.3,0.1,0.7,0.5,0.9" />
                    <path class="st0"
                        d="M813.7,1999.3c-1.5,0.8-1.6,1-1.1,2.6c0.8,2.1,1.7,4.2,2.2,6.4c0,0.2,0.3,0.4,0.5,0.6" />
                    <path class="st0"
                        d="M800,1999.7c1.9,0.5,1.9,1.8,1.3,3.2c-0.7,1.7-1.5,3.3-1.9,5.2c-0.1,0.3-0.2,0.6-0.7,0.7" />
                    <path class="st0"
                        d="M805.7,2015.9c-0.6-0.4-1.1,0-1.5,0.2c-2.6,1.4-4.1,3.7-5,6.4c-0.1,0.4-0.3,0.8-0.6,1.1" />
                    <path class="st0"
                        d="M819.1,2006.3c-0.6-0.9-0.7-1.9-1.1-2.9c-0.6-1.2-1.2-2.3-2.2-3.2c-0.3-0.2-0.6-0.2-0.9-0.2" />
                    <path class="st0"
                        d="M798.1,2004.8c0.1,0.2,0.2,0.3,0.2,0.5c-0.2,1.8,0.5,3.5,0.3,5.3c-0.1,1.3,0.1,2.7,0.2,4.1" />
                    <path class="st0" d="M815.3,2009c0.2,1.8,0,3.6-0.3,5.4" />
                </g>
                <g id="bike" class="st3">
                    <path class="st0" d="M795,2179.3c-0.2-0.5-0.1-1,0.1-1.5c1.6-3.5,3.2-7.1,4.8-10.6c0.9-2.1,1.9-4.2,2.7-6.3c0.7-1.6,1-3.3,0.5-5
        			c-0.4-1.4-1.5-2.2-2.8-2.6c-1.4-0.4-2.8-0.3-4.2-0.3c-1.7,0.1-3.4,0.3-5.1,0.6c-4.9,1.1-9.3,3.1-13.2,6.2
        			c-3.3,2.5-5.9,5.6-7.9,9.2c-1.4,2.6-2.5,5.3-3.1,8.2c-0.6,2.8-0.8,5.7-0.6,8.6c0.3,4.4,1.7,8.3,4.1,11.9c2.4,3.6,5.6,6.4,9.7,8.2
        			c1.9,0.8,3.8,1.4,5.9,1.6c1,0.1,2.1,0.1,3.1,0.2c1.2,0.1,2.5-0.1,3.7-0.2c1.8-0.2,3.5-0.3,5.3-0.6c4.2-0.6,8.2-1.7,11.6-4.4
        			c3.1-2.4,5.4-5.4,7.2-8.9c1.6-3,2.7-6.2,3.4-9.6c0.5-2.1,0.7-4.3,0.6-6.5c-0.1-3.9-1.3-7.3-3.8-10.3c-2.3-2.7-5.1-4.9-8.1-6.9
        			c-0.4-0.2-0.6-0.7-1.1-0.7" />
                    <path class="st0" d="M850.2,2190.8c0,1.5,0.6,2.9,1.3,4.1c2,4,5.4,6.6,9.4,8.4c2.5,1.2,5.2,2,7.9,2.6c2.9,0.6,5.9,1.1,8.9,1.2
        			c1.9,0.1,3.8,0,5.6-0.3c1.8-0.2,3.5-0.8,5.2-1.5c3.7-1.6,6.9-4.1,9.6-7c1.9-2.1,3.5-4.5,4.8-7.1c1.1-2.2,1.9-4.4,2.5-6.7
        			c0.7-3,1-6.1,0.7-9.2c-0.3-3-1-5.9-2.1-8.7c-1.2-3-3-5.7-5-8.2c-2.3-2.8-5.2-5-8.4-6.7c-2.5-1.3-5.3-2.2-8.1-2.6
        			c-1.6-0.2-3.1-0.4-4.7-0.4c-3.9,0.1-7.7,0.8-11.2,2.4c-1.4,0.6-2.9,1.3-4.1,2.3c-1.5,1.1-1.6,1.3-0.8,3.1c0.7,1.7,1.8,3,2.9,4.4
        			c0.3,0.4,0.6,0.9,0.4,1.4" />
                    <path class="st0" d="M793.2,2182c0.6-0.6,1-1.5,1.5-2.2c0.1-0.2,0.2-0.4,0.3-0.5c1.2-0.3,1.7-1.5,2.4-2.3c2.4-3.1,4.5-6.4,6.5-9.8
        			c1.2-2.2,2.4-4.4,3.4-6.7c0.2-0.4,0.7-0.8,0.4-1.4c0.4-0.4,0.6-1,0.9-1.5c0.6-0.8,0.8-0.9,1.7-0.3c2.5,1.6,4.6,3.5,6.4,5.8
        			c1.8,2.3,3.3,4.8,4.4,7.5c0.9,2.3,1.5,4.6,1.9,7c0.3,2.2,0.3,4.4,0.2,6.5c-0.1,2.5-0.7,4.9-1.5,7.2c-1.1,3.2-2.8,6.1-5,8.6
        			c-2.2,2.5-4.6,4.7-7.5,6.5c-2.5,1.5-5.2,2.6-8.1,3.3c-3.2,0.7-6.5,1-9.8,1.1" />
                    <path class="st0" d="M848.5,2191.3c0,0.7-0.6,1.1-1,1.5c-0.7,1-1.5,1.9-2.3,2.9c0.7,0.8,1.6,1.3,2.5,1.8c2.6,1.8,5.3,3.4,8,5
        			c4.6,2.6,9.4,4.8,14.6,5.9c2.7,0.6,5.5,0.9,8.3,1.1c3.4,0.2,6.8,0.2,10.3,0.1c3.3-0.1,6.7-0.3,10-0.5c3.5-0.2,6.9-0.5,10.4-0.8
        			c2.1-0.2,4.3-0.5,6.4-0.7c1-0.1,2-0.1,2.9-0.2c1.1-0.1,2.3-0.2,3.4-0.4c1.3-0.2,2.6-0.3,3.9-0.4c1.5-0.1,2.9-0.3,4.4-0.4
        			c0.9,0,1.8-0.3,2.5,0.6c0,0.1,0.2,0,0.3,0" />
                    <path class="st0" d="M840.9,2121.5c-0.4,0.5-0.9,0.9-1.5,1.1c-3.1,1.5-6.3,2.8-9.5,4c-2.3,0.9-4.7,1.8-6.6,3.4
        			c-1.5,1.3-2.6,2.8-2.7,4.8c-0.1,1.6,0.1,3.3,0.6,4.8c0.8,2.3,2,4.4,3.1,6.6c1.2,2.3,2.5,4.6,3.7,6.9c1,1.9,2.1,3.9,3.1,5.8
        			c0.8,1.6,1.4,3.3,1.2,5.2c-0.1,1-0.3,2-0.7,2.9c-0.8,2-1.6,4-2.1,6.1c-0.3,1.4-1.2,2.4-2.7,2.8c-0.3,0.1-0.7,0.3-1,0.5
        			c-0.4,0.3-0.3,0.7,0.2,0.9c0.4,0.2,0.8,0.3,1.1,0.6" />
                    <path class="st0" d="M810.9,2096.2c0.6-0.9,1.7-1.2,2.5-1.7c1.2-0.8,2.4-1.6,3.2-2.9c0.9-1.3,1.1-2.8,1.2-4.2
        			c0.1-0.7,0.3-1.4,0.1-2.1c-0.3-1.3-0.5-1.4-1.6-1.5c-1.7-0.2-3.5,0-5.2,0.3c-1.8,0.3-3.5,0.8-5.2,1.4c-3,1.1-5.4,2.9-7.4,5.3
        			c-1.4,1.8-2.5,3.8-2.9,6c-0.2,0.9-0.3,1.8,0,2.7c0.4,1,0.7,1.3,1.8,1.3c0.4,0,0.8-0.1,1.2,0.1c0.4,0.2,0.8-0.2,1.2-0.3
        			c2.3-1,4.6-1.8,6.9-2.7C808.1,2097.2,809.5,2096.7,810.9,2096.2" />
                    <path class="st0" d="M861.7,2114.2c-0.3-0.1-0.6-0.4-0.8-0.7c-1.8-3.1-4.2-5.6-7.2-7.5c-1.9-1.2-4-2.1-6.2-2.7
        			c-3.1-0.8-6.2-1.6-9.3-2.3c-2.7-0.6-5.3-1.4-8-2.1c-2.1-0.6-4.3-0.9-6.5-0.7c-0.6,0-1.2,0.2-1.7,0.6" />
                    <path class="st0" d="M824.6,2112.1c-0.3,2.4-1.3,4.5-2.4,6.6c-0.9,1.7-1.9,3.4-2.9,5c-0.7,1.1-1.7,1.8-3.1,1.9c-1,0.1-2,0.1-3,0.1
        			c-3,0.1-6,0.1-9.1,0.2c-2.1,0.1-4.1,0-6.2,0.1c-0.5,0-0.7-0.3-1.1-0.4" />
                    <path class="st0" d="M862.7,2119.2c-0.3,0.3-0.4,0.6-0.4,1c-0.2,2.2-0.7,4.4-1.5,6.5c-0.2,0.6-0.5,1.2-0.5,1.8
        			c0,0.5-0.3,0.8-0.8,1.1c-0.4,0.2-0.7,0.4-1.1,0.7c-0.1,0.1-0.3,0.1-0.3,0.2c-0.2,1.4-1.4,2.2-2.2,3.1c-2.1,2.3-4.5,4.2-6.9,6.2
        			c-2.6,2.2-5,4.5-6.7,7.4c-0.3,0.6-0.6,1.2-0.9,1.8c-0.7,1.4-0.5,2.6,0.5,3.7c0.8,0.9,1.6,1.8,2.5,2.7c1.6,1.5,2.9,3.2,4.4,4.6
        			c0,0,0.1,0.1,0.1,0.1c0,1.2,1.2,1.6,1.6,2.6c0.4,1,1,1.8,1.5,2.8c0.9,1.6,1.8,3.2,3,4.6c0.7,0.8,1.5,1.5,2.3,2.2
        			c0.8,0.7,1.6,1.4,2.3,2.3c0.8,1.2,1.2,2.5,0.6,3.9c-0.1,0.2-0.1,0.4-0.1,0.6" />
                    <path class="st0" d="M859.7,2129.6c0.5,1-0.1,2-0.4,2.9c-0.7,2.2-1.5,4.4-2.3,6.6c-1.1,3.1-2.3,6.1-3.4,9.1
        			c-1.3,3.4-2.6,6.8-3.9,10.3c-0.2,0.6-0.3,1.3-0.8,1.7" />
                    <path class="st0" d="M807.6,2159c-0.9-0.4-1.1-1.2-1.1-2c-0.1-1.4,0.4-2.7,0.8-4c0.8-2.7,1.7-5.2,2.9-7.7c0.8-1.6,1.7-3.2,2.5-4.9
        			c0.7-1.4,1.2-2.8,1.6-4.3c0.2-0.6,0.1-1.3,0.1-1.9c0-0.5-0.4-0.4-0.6-0.5c-0.9-0.1-1.8-0.2-2.7-0.4c-1.7-0.3-3.5-0.5-5.3-0.5
        			c-2.2,0-4.3,0.4-6.3,1.7c-1.4,1-2.2,2-2.6,3.6c-0.3,1.4,0,2.5,0.7,3.6c1.2,2,3.2,2.9,5.3,3.4c1.1,0.3,2.1,0.3,3.1-0.3
        			c0.6-0.4,0.9-1,1-1.6c0.4-1.9-0.3-3.5-1.8-4.7c-1.4-1.2-3-2-4.6-3c-0.4-0.3-0.8-0.5-1.2-0.8" />
                    <path class="st0"
                        d="M821.1,2098.7c-0.3,0.4-0.8,0.4-1,0.7c-0.8,0.9-1.8,1.6-2.5,2.5c-0.9,1.2-1.5,2.6-2.3,3.9
        			c-0.8,1.2-0.6,2.7-1,3.9c-0.2,0.6-0.2,1.2-0.7,1.7c-0.6,0.5-0.5,1.4-0.6,2.1c-0.2,1-0.3,2.1-0.5,3.1c-0.3,1.6-1.3,2.4-2.9,2.5
        			c-2.1,0.1-4.1-0.1-6.2,0c-2.2,0.2-4.4,0.3-6.5,0.7c-1.3,0.2-2.7,0.4-4,0.7c-0.4,0.1-0.8,0.2-1.1,0.4c-0.2,0.1-0.4,0.1-0.6,0.1" />
                    <path class="st0" d="M814.1,2111.1c0.3,0.3,0.4,0.7,0.4,1.1c0,1.4-0.2,2.8-0.3,4.1c-0.1,1.1-0.2,2.2-0.8,3.2
        			c-0.9,1.6-2.4,2.2-4.1,2.3c-3.3,0.2-6.7,0.3-10,0.5c-0.7,0-1.5,0.1-2.2,0.1c-0.5,0-0.9,0.1-1.2,0.4" />
                    <path class="st0" d="M849.9,2189.3c-0.7-0.2-1.3,0.2-2,0.3c-0.5,0.1-1,0.1-1.5-0.2c-1.1-0.5-0.9-1.3-0.4-2c0.4-0.6,1.1-1,1.7-1.4
        			c1.9-1.5,2.8-3.5,3.1-5.8c0.3-2.5-0.2-4.9-1.5-7.1c-0.6-1-1.2-1.9-2-2.7c-0.3-0.3-0.6-0.6-0.9-0.8" />
                    <path class="st0" d="M834.8,2140.9c-0.7,0.6-0.7,1.6-1,2.4c-0.6,1.7-1.1,3.6-1.3,5.4c-0.3,3.1,0.3,6,2,8.6c1.3,2,3,3.7,4.7,5.3
        			c1.4,0.4,2.1,1.7,2.9,2.7c0.5,0.6,1.1,0.9,1.6,1.4c0.7,0.6,1.2,1.2,1.9,1.8c0.7,0.6,0.7,0.7,0.4,1.5c-0.4,1.1-0.6,2.3-0.9,3.4
        			c-0.7,3-1.1,6.1-1.4,9.1c-0.1,0.8,0,1.7-0.5,2.4" />
                    <path class="st0"
                        d="M840.2,2163c0.3-0.9-0.2-1.6-0.5-2.3c-0.4-1-0.5-1.9-0.6-3c-0.5-4.2-0.7-8.5-2-12.6c-0.4-1.2-0.9-2.3-1.4-3.4
        			c-0.1-0.3-0.4-0.6-0.6-0.8c-0.1-0.1-0.2-0.1-0.2-0.2c-0.3-1.6-1.6-2.4-2.6-3.4c-0.3-0.4-0.8-0.6-1.1-1c-0.3-0.3-0.6-0.4-0.9-0.4" />
                    <path class="st0" d="M854.6,2162.5c0.5,0,0.9-0.1,1.3-0.4c0.4-0.4,0.9-0.7,1.3-1c0.9-0.6,1.6-0.6,2.4,0.1c0.6,0.5,1.1,1.1,1.6,1.7
        			c2.6,2.7,5.3,5.3,7.9,8c2.3,2.3,4.6,4.6,7,7c0.3,0.3,0.6,0.5,0.6,1" />
                    <path class="st0" d="M858.5,2113.2c-2.5,1.1-4.6,2.8-7,4.2c-2.6,1.6-5.4,2.7-8.3,3.6c-0.5,0.1-1,0.3-1.5,0.4c-0.6,0.2-1,0-1.2-0.5
        			c-0.3-0.8-0.9-1.1-1.6-1.3c-2.1-0.8-4.2-1.5-6.2-2.2c-1.9-0.7-3.8-1.5-5.6-2.3c-0.5-0.2-1-0.5-1.6-0.4" />
                    <path class="st0" d="M825.4,2114.4c0.1,0.6-0.3,1.1-0.1,1.7c0.2,0.6,0.4,1.1,0.9,1.6c1.5,1.5,3.3,2.1,5.3,2.7
        			c2.6,0.7,5.2,0.9,7.9,0.8c0.4,0,0.8,0,1.2-0.1" />
                    <path class="st0" d="M877.1,2179c-0.7,0-1.3,0.3-2,0.4c-2.5,0.5-5.1,0.8-7.7,0.7c-1.8-0.1-3.6-0.3-5.3-0.6c-0.7-0.1-1.4,0-2-0.2
        			c-0.1,0-0.3,0.1-0.4,0.1c-1.9,1.2-3.6,2.7-5.2,4.3c-1.5,1.6-2.7,3.6-4.3,5.1c-0.2,0.2-0.3,0.4-0.2,0.7c0.1,0.1,0.1,0.3,0.1,0.4
        			c-0.1,0.2-0.2,0.5,0,0.6c0.3,0.2,0.6,0.3,1,0.3c1.2-0.1,2.5-0.2,3.7-0.3c0.7-0.1,0.9-0.4,0.9-0.9c-0.1-0.4-0.3-0.4-0.6-0.4
        			c-1.2,0-2.4,0.3-3.6,0.6c-0.4,0.1-0.8,0.1-1.2,0.1" />
                    <path class="st0" d="M853.2,2164c0.5-0.3,0.8-0.9,1.3-1.3c0.3-0.3,0-0.7,0.3-1.1c0.6-0.8,1.2-1.6,2-2.2c0.5-0.4,1-0.8,1.6-1
        			c1-0.5,2-0.3,2.7,0.5c0.8,0.9,1.7,1.8,2.5,2.7c0.3,0.3,0.6,0.6,1.1,0.6c0.4,0,0.7,0.4,0.9,0.7c2.1,2.4,4.3,4.8,6.4,7.2
        			c1.7,1.9,3.4,3.7,5.1,5.6c0.6,0.7,1.3,1.4,1.9,2.2" />
                    <path class="st0" d="M843.5,2185.5c-0.1-0.1,0-0.4-0.2-0.5c-0.6-0.4-0.8-1-1.1-1.5c-0.9-1.8-2-3.4-3.9-4.4c-1-0.5-2-0.8-3.2-0.9
        			c-1.2-0.1-2.3,0.1-3.4,0c-0.4,0-0.9,0.1-1.3-0.2c-0.3-0.2-0.6-0.1-0.8-0.1c-0.6,0.1-1.1,0.1-1.7,0c-0.5-0.1-0.7,0.1-0.8,0.5
        			c-0.2,0.7,0,1.1,0.5,1.3c0.4,0.1,0.8,0.3,1.2,0.3c1.1,0.1,2.2,0.1,3.3,0.2c1.5,0,3,0,4.4,0.3c1.2,0.3,2,1.1,2.7,2
        			c1.4,2,2.4,4.3,3.5,6.5c0.7,1.4,1,2.9,2,4.2c0.2,0.2-0.1,0.4,0.1,0.6" />
                    <path class="st0" d="M842.8,2166.3c-0.3,0.5-0.2,1-0.4,1.5c-0.3,1-1,1.8-1.8,2.4c-2.3,1.8-4.4,3.7-6.7,5.5
        			c-0.8,0.6-1.6,1.1-2.5,1.4c-0.4,0.2-0.8,0.4-1,0.8" />
                    <path class="st0" d="M858,2130.5c-0.7-0.4-1.3,0.1-2,0.2c-1,0.2-2,0.3-3,0.4c-1.4,0.2-2.8,0.2-4.1,0.4c-0.9,0.1-1.9,0.1-2.8,0.2
        			c-2,0.2-3.9,0.5-5.8,0.9c-1.5,0.3-3,0.7-4.5,1.2c-0.4,0.1-0.8,0.3-1.1,0.6" />
                    <path class="st0" d="M861.6,2110.9c0.2,0.7,0.1,1.4,0.3,2c0,0.1,0,0.2,0,0.3c-0.3,2,0.7,3.8,0.8,5.7c0,0.1,0,0.2,0,0.2
        			c1.1,0.8,0.8,2,1.1,3.1c0.2,0.7,0.2,1.4,0.2,2c0.1,2.1-1,3.5-2.7,4.6c-0.4,0.2-0.8,0.1-1.2,0" />
                    <path class="st0" d="M789.2,2123.1c-0.2-0.3-0.2-0.7-0.1-1c0.2-0.8-0.3-1.1-0.8-1.4c-0.5-0.3-1.1-0.4-1.7-0.1
        			c-1,0.6-1.3,1.7-1.5,2.7c-0.3,1.3-0.2,2.7,0.2,4c0.3,0.8,1.2,1.6,2.3,1.7c0.4,0,0.5-0.2,0.7-0.4" />
                    <path class="st0" d="M810.9,2096.3c0.3,0.3,0.7,0.3,1.1,0.3c2.6-0.2,5.2-0.1,7.6,1c0.5,0.2,1.1,0.5,1.5,0.9c0,0,0,0.1,0.1,0.1
        			c1.4,0.2,1.8,1.4,2.6,2.3c0.8,0.9,1.2,2,1.5,3.1c0.2,0.8,0.5,1.7,0,2.5c-0.1,0.2,0,0.6,0,1c0,0.9,0,1.9,0,2.8
        			c0,1.5-0.7,2.1-2.2,1.7c-0.2,0-0.3-0.1-0.5-0.1c-1.5,0-3,0-4.6-0.1c-1.1,0-2.3-0.1-3.4-0.1" />
                    <path class="st0"
                        d="M848.9,2161.1c-0.3,0.2-0.4,0.4-0.5,0.7c-0.6,1.9-1.3,3.8-1.8,5.8c-0.1,0.4-0.4,0.8-0.5,1.1" />
                    <path class="st0" d="M819.6,2100.2c0.5,0.4,1.2,0.2,1.8,0.6c1.2,0.8,1.9,1.9,2.4,3.1c0.3,0.6,0.5,1.3,0.8,2
        			c0.1,0.3,0.3,0.5,0.6,0.6" />
                    <path class="st0" d="M829.3,2127c0.5,1.5,1.5,2.7,2.3,4c0.7,1.1,1.7,2.1,2.5,3.2c0.2,0.3,0.6,0.5,0.9,0.8c0.7,0.7,0.9,1.4,0.6,2.3
        			c-0.3,0.8-0.3,1.8-0.8,2.5" />
                    <path class="st0" d="M814.6,2106.9c-1.4-0.6-2.7-0.5-3.7,0.8c-0.2,0.3-0.5,0.5-0.7,0.8c-0.4,0.5-0.8,0.9-1.3,1.2
        			c-1.1,0.7-2.1,0.3-3-0.3c-0.4-0.3-0.8-0.6-1.2-1c-0.8-0.7-1.7-1.1-2.7-1" />
                    <path class="st0" d="M788,2129.1c0,1.1-0.1,2.3-0.1,3.4c0,0.7,0.1,1.4,0.3,2c0.2,0.6,0.6,1,1.3,1.1c0.7,0.1,1.1-0.3,1.4-0.8
        			c0.4-0.6,0.6-1.4,0.8-2.1c0.2-0.7,0.4-1.4,0.8-2" />
                    <path class="st0"
                        d="M798.8,2101c-0.2,0.4,0,0.7,0.3,1c0.7,0.8,1.4,1.6,1.8,2.5c0.5,1,0.7,2.1,0.9,3.2" />
                    <path class="st0" d="M799,2134.7c-1.3-1-2.7-1.7-4.1-2.6c-0.8-0.5-1.6-1-2.5-1.4c0.7-1.2,1.5-2.4,2.6-3.3c0.6-0.5,1.2-1.1,1.7-1.7
        			c0.3-0.4,0.2-0.9,0-1.3c-0.2-0.5-0.6-0.9-0.9-1.3c-0.2-0.3-0.8-0.3-1.2-0.4c-0.7-0.1-1.4-0.1-2.1,0.1c-0.3,0.1-0.5,0.2-0.5,0.5
        			c-0.1,1.5-0.5,2.6-1.2,3.9c-0.3,0.5-0.8,0.9-1.2,1.4c-0.3,0.4-1.2,0.1-1.5-0.3c-0.8-1.7-0.4-3.3,0.7-4.8c0.4-0.5,1-0.3,1.5-0.5
        			c0.3-0.1,0.7-0.2,1-0.2" />
                    <path class="st0" d="M849.9,2190.5c-0.4,0.2-0.7,0.4-1.1,0.6c-0.2,0.1-0.3,0.2-0.5,0.1c-0.5-0.3-1.1-0.1-1.6-0.1
        			c-0.4,0-0.5,0.3-0.6,0.5c-0.3,0.4-0.5,0.9-0.8,1.3c-0.1,0.3-0.3,0.5-0.6,0.6" />
                    <path class="st0" d="M792.2,2124c0.9,0.5,1.6,1.2,2.6,1.5c0.5,0.1,1,0.3,1.4,0.6" />
                    <path class="st0" d="M833.9,2134.4c-0.6,0.5-1.4,0.6-2,0.9c-0.4,0.2-0.7,0.4-1,0.7" />
                    <path class="st0" d="M789.6,2128.6c0.3,0.6,0.9,0.7,1.3,1.1c0.5,0.3,1,0.6,1.5,0.9" />
                </g>
            </g>
            <g id="line">
                <path id="_x30_4" class="st0 st6" d="M180,1672.2c-1.4,12.4-38.5,30.2-47,37.8c-44,38.6,117,55,137,57c26,2,51,2,76,3c66,1,132,1,199-4
        		c43-4,86-9,169-12c39-3,74,2.4,23,64.5" />
                <path id="_x30_3" class="st0" d="M274.1,1263.8c10.4,79.7-26.3,135.7-3.3,188.8" />
                <path id="_x30_2" class="st0" d="M260.4,950.6c-1.5,9.9-77.5,252.5-4,228.5" />
                <!-- ,77.5-22,234.8-21,139 -->
                <path id="_x30_1" class="st0"
                    d="M330.4,400.6c2.6,71.4,38.4,155.1-3.3,203.5c-30,37.4-255.6,52.6-260.6,318.7" />
            </g>
        </svg>