<svg xmlns="http://www.w3.org/2000/svg" viewBox="0 0 213.69 89.71"><defs><style>.cls-1{fill:#152d35;}</style></defs><title>Middel 2</title><g id="Laag_2" data-name="Laag 2"><g id="Laag_1-2" data-name="Laag 1"><g id="objects"><g id="car"><path class="cls-1" d="M158.5,38.16a13.16,13.16,0,0,1-15.5-2c-.8-.8-2.5-2.5-2.2-3.8.3-1.7,3.8-.7,4.8-.4a14.79,14.79,0,0,1,3.5,1.9c.7.4,2.5,1.4,2.4,2.3.6-.2,1.1-.5,1.7-.7-2.2-2.3-4.4-4.9-4.4-8.2.1-3.1.1-6.9-1.7-9.7-3.6-5.3-11.2-6.8-17.1-7.6a45.82,45.82,0,0,0-11.7-.1c-1.6.2-3.3.3-4.4,1.7a6.67,6.67,0,0,0-1.2,3.9c-.4,4.2-.6,8.4-.7,12.6-.1,2.2-.1,4.3-.1,6.5,0,1.5,0,3.1,1.3,4.1s3.4.8,5.1.7l6.9-.3,14.2-.6a1,1,0,0,0,0-2c-4.6,0-9.3-.1-13.9-.1h-7c-1.8,0-4.2-.4-5.8.6-2.6,1.6-2.1,5.4.1,7,3.1,2.3,7,.8,10.1-.7a1,1,0,0,0-.2-1.8,37.35,37.35,0,0,0-4.6-.9,21,21,0,0,0-4.3-.5c-3,0-2.7,3-2.6,5.2l.6,19.5c0,1.7.1,3.3.1,5a7.41,7.41,0,0,0,.8,3.9c1.1,2.1,3.6,3.6,5.7,4.6,4.6,2.2,9.9,2.5,14.9,1.8,6.7-1,12.9-4.1,18.9-7.1a7.37,7.37,0,0,1-1.4-.4c.5.6-4.7,1.9-5.2,2-2,.5-4.1.9-6.1,1.2a82.46,82.46,0,0,1-12.2.9,225.8,225.8,0,0,1-24.7-1.4c-8.3-.8-16.7-1.7-25-1.8a99.48,99.48,0,0,0-12.2.4c-2,.2-3.9.4-5.9.7a29.92,29.92,0,0,0-5.8,1.2A2.39,2.39,0,0,0,52.3,79a5.38,5.38,0,0,0,3.4,2.7c4.1,1.3,8.5,1.6,12.8,1.9,9.2.6,18.4.8,27.7.8a424.43,424.43,0,0,0,55.2-4c1.1-.1,2.1-.3,3.2-.5a17.51,17.51,0,0,0,3.3-.6,3.28,3.28,0,0,0,1.8-3.5,54.15,54.15,0,0,0-1.2-5.8q-.75-3.45-1.2-6.9a104,104,0,0,1-1-13.7c0-2-.6-5,1.8-5.7a23.53,23.53,0,0,1,6.5-.6,49.5,49.5,0,0,1,6.7.2c1.3.1,1.3-1.9,0-2a47.12,47.12,0,0,0-13,.3,4.37,4.37,0,0,0-3.6,2.6c-.7,1.8-.4,4-.4,5.9a117.25,117.25,0,0,0,1,13.2c.3,2.1.7,4.3,1.1,6.4s1.2,4.1,1.3,6.2c.1,1.3-.6,1.5-1.8,1.7s-2.3.3-3.4.5c-2.3.3-4.7.7-7,.9-4.5.6-9.1,1.1-13.6,1.5-9,.8-18.1,1.4-27.1,1.6s-18.3.2-27.4-.2c-4.5-.2-9-.3-13.4-.8A46.42,46.42,0,0,1,57.5,80,6.91,6.91,0,0,1,55,79c-.2-.2-.8-.6-.8-1s.9-.6,1.2-.7c15.9-3.8,32.8-1.5,48.8,0a200,200,0,0,0,24.5,1.2,89.26,89.26,0,0,0,11.6-1,56,56,0,0,0,5.9-1.2c1.7-.4,3.8-.7,5.3-1.7,1.1-.7,2-2.1,1.1-3.3a1.08,1.08,0,0,0-1.4-.4c-8.8,4.3-18.6,9.1-28.6,6.4a20.66,20.66,0,0,1-6.2-2.9,6.16,6.16,0,0,1-2.2-2.6,16.41,16.41,0,0,1-.4-4.4c-.2-5.6-.3-11.1-.5-16.7,0-1.6-.1-3.2-.1-4.7,0-.8-.1-1.7-.1-2.5,0-.4-.2-1.3.1-1.6s1.3-.1,1.7,0a18.66,18.66,0,0,1,2.5.4c1.6.3,3.1.6,4.6.9a11,11,0,0,1-.2-1.8c-2.3,1.1-6.1,2.9-8.3.5a2.45,2.45,0,0,1-.1-3.3c1-.9,3.5-.4,4.7-.4,7,.1,14.1.1,21.1.2v-2l-22,.9a8.68,8.68,0,0,1-2.3-.1c-.9-.3-1.1-.9-1.1-1.8a58.56,58.56,0,0,1,.1-5.9c.1-3.6.3-7.3.5-10.9a19.09,19.09,0,0,1,.5-4.8c.7-2,2.9-1.9,4.7-2a46.14,46.14,0,0,1,10.5.3c5.2.7,12.7,2.1,15.5,7.1.9,1.5.9,3.3,1,5.1a40.08,40.08,0,0,0,.1,4.9c.5,3,2.9,5.5,4.9,7.7a1,1,0,0,0,1.7-.7c.1-2.4-3.3-4-5-5a12.62,12.62,0,0,0-4.6-1.6c-1.5-.2-3.3-.4-4.4.8-2.2,2.4.7,6,2.5,7.6a15.29,15.29,0,0,0,17.5,1.8.9.9,0,1,0-.8-1.6Z"/><path class="cls-1" d="M173.4,87.36c-2.9.1-5.1-2.8-6.5-5a18.31,18.31,0,0,1-3.1-7.8A14.93,14.93,0,0,1,169.5,60a14,14,0,0,1,14.2-1.5,14.66,14.66,0,0,1,8.4,11.8,27.16,27.16,0,0,1-1.1,9.8c-.8,2.7-2.2,7.7-6,7.1.1.6.3,1.1.4,1.7,4.8-4.2,8.2-10.3,8-16.8a16.41,16.41,0,0,0-8.3-13.9c-5.7-3.1-12.8-1.4-18,2.1s-8.7,9.6-7.5,16a18.75,18.75,0,0,0,3.3,7.5,19.58,19.58,0,0,0,7.6,5.7c1.2.5,2.2-1.2,1-1.7a16.88,16.88,0,0,1-6.3-4.3,17.25,17.25,0,0,1-2.9-5.1,13.52,13.52,0,0,1,4.1-15.1c4.2-3.6,10.9-6.1,16.3-4a14.32,14.32,0,0,1,8.5,11.6c.7,6.4-2.7,12.5-7.4,16.6a1.05,1.05,0,0,0,.4,1.7c3.3.6,5.8-1.8,7.1-4.6a33.21,33.21,0,0,0,2.6-10.3c.5-6.4-1.8-12.6-7.3-16.3a16.22,16.22,0,0,0-16.6-.9,16.7,16.7,0,0,0-8.8,15.6,21.58,21.58,0,0,0,3.5,10.7c1.8,2.8,4.6,6.1,8.2,6,1.8-.1,1.8-2.1.5-2Z"/><path class="cls-1" d="M192.2,81.26c3.9-.1,7.8.2,11.7-.3,1.7-.2,3.4-.5,5.2-.7,1.2-.1,2.8,0,3.6-1.1a5.7,5.7,0,0,0,.5-5.5,3.38,3.38,0,0,0-3.9-1.6,15.79,15.79,0,0,1-6.5-.3c-2.9-1-4.1-3.5-2.7-6.3.7-1.4,3.3-5.4,5.3-4.4,2.2,1.1,2,4.8,1.5,6.8-.5,1.7-2.6,5.6-4.9,4.6-2.5-1.1.1-6.3.9-7.9.4-.9,1.3-3.1,2.5-2.5.9.5,1.5,1.5,2.5,1.9,1.9.7,3.4-.3,3.4-2.3a26.33,26.33,0,0,0-.9-7.4,5,5,0,0,0-3.8-3.7,9.15,9.15,0,0,0-4,.7,7.52,7.52,0,0,1-4.2.2,11.8,11.8,0,0,1-4-2.1c-.4-.3-1.7-1-1.9-1.6-.3-.8.6-.9,1.2-1,2.5-.4,5.5-.8,7.8.4s2.9,4,5.1,5.3a1,1,0,0,0,1.5-.9,19.08,19.08,0,0,0-10.6-14.8c-7.1-3.3-15.1-1.6-22.6-2.3-1.3-.1-1.3,1.9,0,2,6.9.7,14.2-.9,20.8,1.7a17.16,17.16,0,0,1,10.4,13.4l1.5-.9a10.53,10.53,0,0,1-2.5-3,6.92,6.92,0,0,0-2.7-2.4c-2.3-1.2-5-1.1-7.5-.8-1.9.2-4.9.6-4.4,3.3.2,1.2,1.3,1.9,2.2,2.6a18.33,18.33,0,0,0,3.8,2.3,11.21,11.21,0,0,0,3.6.9,15,15,0,0,0,4.2-.9c1.3-.4,2.7-.5,3.6.8A8.46,8.46,0,0,1,209,57a17.15,17.15,0,0,1,.4,4.5c-.1.8-.6.5-1.2.1a14.93,14.93,0,0,0-1.4-1.2c-2.6-1.9-4.3.7-5.4,2.8a27.81,27.81,0,0,0-1.6,4,7.72,7.72,0,0,0-.5,4.5,3.71,3.71,0,0,0,5.3,2.4c4.4-2,6.3-8.9,3.8-13-3.4-5.6-9.3,1-10.4,5a5.61,5.61,0,0,0,2.4,6.5c2.1,1.4,4.5,1.6,6.9,1.6a17,17,0,0,0,2.2-.1,2.51,2.51,0,0,1,1.9.1c.6.4.7,1.6.6,2.3-.1.4-.2.7-.3,1.1-.3.3-.3.5,0,.4h-.1c-.3.2-.8.1-1.1.2l-2.6.3c-2.5.3-5,.7-7.5.8s-5.2-.1-7.8,0c-1.7.1-1.7,2.1-.4,2Z"/><path class="cls-1" d="M204.5,44.66c-2.4-.1-4.4-1.7-6.4-2.6a33.54,33.54,0,0,0-6.3-2.2,29.77,29.77,0,0,0-6.6-.8c-1.7,0-4.2-.3-5.5,1a1,1,0,0,0,.7,1.7c6-.3,12.6-.1,17.4,4,1,.8,2.4-.6,1.4-1.4-5.3-4.5-12.2-4.8-18.8-4.5.2.6.5,1.1.7,1.7.6-.7,2.2-.5,3-.5,1.1,0,2.1,0,3.2.1a30.38,30.38,0,0,1,6,1.2,31.37,31.37,0,0,1,5.7,2.4,12.6,12.6,0,0,0,5.6,2,1.06,1.06,0,0,0-.1-2.1Z"/><path class="cls-1" d="M111.3,63.66c-.4,2.7-.8,5.9-2.8,8a6.5,6.5,0,0,1-4.6,1.8c-1.9.1-3.9.2-5.9.2a60.75,60.75,0,0,1-12-1.6,55.22,55.22,0,0,0-11.5-.9c-3.7,0-7.9,0-11.2-1.9s-3.8-7.1-3.9-10.5a63.56,63.56,0,0,1,.8-11.5c.5-4,.8-8.1.9-12.1s.1-8.2,0-12.2c-.1-1.8-.3-3.6-.3-5.3a5.64,5.64,0,0,1,1.2-3.1c2.2-3.1,6.2-4.1,9.8-4.4a101,101,0,0,1,12.3,0l12.2.6a38.25,38.25,0,0,1,5.8.7c1.5.3,3.7.7,4.6,2.1a5.56,5.56,0,0,1,.4,2.9v15.7c0,.7.3,2.3-.3,2.8s-1.7.4-2.3.6c-1,.2-2,.3-2.9.4a48.86,48.86,0,0,1-5.4.3,103.36,103.36,0,0,1-11.1-.7c-7.2-.7-14.5-1.7-21.8-.8a28.76,28.76,0,0,0-5.1,1,1,1,0,0,0,0,1.9c3.8.9,7.5.4,11.3.1a50.92,50.92,0,0,1,11.7.3,79.32,79.32,0,0,0,11.9.8c4.1,0,8.2-.3,12.3-.6,1.3-.1,1.3-2.1,0-2-3.9.3-7.8.5-11.8.6a93.88,93.88,0,0,1-11.9-.8,62.91,62.91,0,0,0-11.5-.4c-3.8.3-7.7,1-11.5.1v1.9c7.9-2,16.1-1.1,24.2-.3,7.8.8,16.1,1.8,23.9-.3a2.8,2.8,0,0,0,2.4-2.8c.1-2,0-4.1,0-6.2V16.46c0-1.8-.1-3.6-1.5-4.9a9.08,9.08,0,0,0-4.5-1.9c-4.2-.9-8.6-.9-12.9-1.1-4.6-.2-9.2-.5-13.7-.5-4,0-8.3.2-12,2a10,10,0,0,0-5.6,7,5.65,5.65,0,0,0,0,1.3c.1,1.2.2,2.3.2,3.5.1,2.2.2,4.4.2,6.6,0,4.6-.1,9.1-.5,13.7-.4,4.4-1,8.7-1.3,13.1a27.39,27.39,0,0,0,1.7,12c1.6,3.8,5.2,5.1,9.1,5.7,4.2.6,8.4.2,12.5.5,4.3.3,8.5,1.7,12.8,2.2a50,50,0,0,0,6.7.2,25.15,25.15,0,0,0,6.1-.5c3.1-.8,5-3.3,6-6.3a24.55,24.55,0,0,0,1-4.7c-.1-1.5-2-2-2.2-.7Z"/><path class="cls-1" d="M60,36.36a145.71,145.71,0,0,1-1.5-18.6v-4.4c0-1.2.3-2.6-.3-3.7a3.23,3.23,0,0,0-2.5-1.4c-1.6-.3-3.1-.6-4.7-.8a102.11,102.11,0,0,0-17.5-.7,169.72,169.72,0,0,0-17.4,1.3,11.47,11.47,0,0,0-6.5,3.2,17.09,17.09,0,0,0-2.1,2.6,5.9,5.9,0,0,0-1.2,2.2c-.4,3,3.3,4.8,4.5,7.1a1.63,1.63,0,0,1,.2,1.5c-.4,1.3-.9,2.5-1.2,3.9a16.25,16.25,0,0,0,.1,7.9c.7,2.5,3.2,1.6,5,.9.8-.3,1.9-.9,2.5-1.2a7.49,7.49,0,0,1,2.1-.2c1.6-.1,3.3-.1,4.9-.1,3.5-.1,6.9-.1,10.4,0,6.9.1,13.9.4,20.8.9,1.3.1,1.3-1.9,0-2-11.2-.8-22.4-1.1-33.7-.8a19.89,19.89,0,0,0-4.9.3,18.65,18.65,0,0,0-2,1c-.3.1-.7.3-1.1.4s-1.3.6-1.8.5-.2,0-.4-.4-.1-.6-.2-.9a14.92,14.92,0,0,1-.2-2.1,23.22,23.22,0,0,1,1.5-7.4c.9-2.8-1.7-4.9-3.3-6.8-.7-.8-1.6-1.7-1-2.8A13.51,13.51,0,0,1,13.2,11c2.3-1.2,5.2-1.2,7.7-1.4,2.7-.2,5.4-.5,8.2-.6a126.66,126.66,0,0,1,16.3-.1,73.18,73.18,0,0,1,9.4,1.2c.8.2,1.5.2,1.6,1.1a20.08,20.08,0,0,1-.1,2.4v4.7a144.26,144.26,0,0,0,1.5,18.6,1.14,1.14,0,0,0,2.2-.5Z"/><path class="cls-1" d="M5.5,41.36c-.6-1.5-.8-3.8.4-5,1.4-1.5,2.6,1,3,2.1a19.83,19.83,0,0,1,1,5.5c0,.5.1,1,.1,1.5a6.55,6.55,0,0,0,0,1.4c0,.2,0,.2.1.1s.1-.1-.1-.1a1.27,1.27,0,0,0-.6.1H7.7c-1.3-.1-1.3,1.9,0,2a11.5,11.5,0,0,0,3.2-.2c1-.4,1.1-1.4,1.1-2.3a43.38,43.38,0,0,0-.6-6.3c-.4-1.8-1.1-4-2.5-5.3a3.18,3.18,0,0,0-4.9,1,6.94,6.94,0,0,0-.1,6.7,1.08,1.08,0,0,0,1.4.4,1.87,1.87,0,0,0,.2-1.6Z"/><path class="cls-1" d="M21.4,84.76c3.8,5.5,12.2,5.7,17.8,3.3,1.2-.5.2-2.2-1-1.7a15.45,15.45,0,0,1-8.5,1,9.93,9.93,0,0,1-6.6-3.6c-.7-1.1-2.5-.1-1.7,1Z"/><path class="cls-1" d="M167.7,86.46c1.5,2.2,4.2,2.8,6.7,3.1a20.43,20.43,0,0,0,9.2-.9c1.2-.4.7-2.4-.5-1.9a19.77,19.77,0,0,1-8,.9c-1.9-.1-4.5-.4-5.7-2.1-.8-1.2-2.5-.2-1.7.9Z"/><path class="cls-1" d="M28.4,86.56c-4.7-2.1-7.4-6.7-8.3-11.5-1-5.3-.1-11.1,4.4-14.5a13.78,13.78,0,0,1,13.7-1.5A17.27,17.27,0,0,1,47.4,70c1.7,5.9.1,13.9-7,14.9.3.6.5,1.2.8,1.8,4.8-2.7,7.3-7.8,8-13.1.7-5.6-.6-11.6-5.4-15a15,15,0,0,0-14.9-1.1A20.91,20.91,0,0,0,18.1,70c-1.8,5.5-1.3,12.2,3.1,16.4L22.6,85c-2.4-2.2-2-6-4.6-8.1a10.1,10.1,0,0,0-5-1.8c-.1,0-.2-.1-.3-.1-.4-.3-.3.1.1,1a.1.1,0,0,1,.1-.1,1,1,0,0,0-.2-1.3c-.6-.6-2.2-.3-2.9-.3-2.1.1-4.4.4-6.2-.7-2-1.2-2-3.5-.7-5.2s3.5-2.5,5.4-3.2a1,1,0,0,0-.3-2c-2.9-.2-5-3.1-5-5.9-.1-3.2,2-6,4.5-7.8a1.08,1.08,0,0,0,.4-1.4A36.66,36.66,0,0,1,11.2,11c.8-1-1-2-1.7-1a38.69,38.69,0,0,0-3.3,39.1,7.37,7.37,0,0,1,.4-1.4C3.4,50,.7,53.76,1.1,57.86a7.89,7.89,0,0,0,7,7.2c-.1-.7-.2-1.3-.3-2-2.2.8-4.6,1.7-6.2,3.6a5.92,5.92,0,0,0-1.2,6.1,6.66,6.66,0,0,0,5.3,3.4,18.73,18.73,0,0,0,4.1,0c.5,0,1.1-.1,1.6-.1s.3.1-.1-.2c-.1-.2-.2-.5-.3-.7s.2-.6.1-.3a.61.61,0,0,0-.1.6,1.33,1.33,0,0,0,.6,1c1.2.9,3.1.7,4.4,1.4,1.7.8,2.3,2.6,2.9,4.2a10.28,10.28,0,0,0,2.4,4.2,1,1,0,0,0,1.4-1.4c-7.3-7.1-2.3-19.7,5.1-24.5a13.7,13.7,0,0,1,13.4-1.2c4.9,2.4,6.5,7.3,6.3,12.5s-2.4,10.6-7.2,13.2c-1.1.6-.3,2,.8,1.8,6.6-.9,9.7-7.9,9.1-13.9a19.85,19.85,0,0,0-8.9-14.6,15.8,15.8,0,0,0-15.6-.8c-5.8,2.9-8.2,8.9-7.8,15.2s3.6,12.8,9.6,15.5c1,.7,2-1,.9-1.5Z"/><path class="cls-1" d="M10.8,11.46c1.4-1.6,2.6-3.2,3.9-4.9a10.72,10.72,0,0,1,2.7-2.9,11.58,11.58,0,0,1,4.8-1.4C25.3,2,28.4,2,31.5,2c6.2.1,12.3.5,18.5.6,5.9.1,11.8.1,17.7.3,11.7.3,23.4,1,35.1,1.6,9.6.5,19.2.9,28.8,1.3,1.3.1,1.3-1.9,0-2-15.4-.6-30.8-1.4-46.2-2.2-5.1-.3-10.2-.4-15.3-.6q-9-.3-18-.3C45.9.56,39.7.26,33.5.06a95.09,95.09,0,0,0-10.7.2,15.93,15.93,0,0,0-6,1.4,9.8,9.8,0,0,0-3.3,3.1c-1.4,1.8-2.7,3.7-4.2,5.4-.8.8.6,2.3,1.5,1.3Z"/><path class="cls-1" d="M131.7,5.86c7.8-.5,14.8,5.2,20.3,10,6.1,5.3,12,11.1,17.8,16.8,1.3,1.3,3.1,2.6,4,4.3a2,2,0,0,1,0,2.3,4.38,4.38,0,0,1-2.5.8,44.57,44.57,0,0,1-6.3.5,22.37,22.37,0,0,1-5.8-.4c-1.9-.5-2.8-2.3-3.7-3.9s-1.8-3.4-2.6-5.2a57.7,57.7,0,0,1-2.2-5.8c-.1-.4-.3-.8-.4-1.2s-.2-.6.3-.6a6.14,6.14,0,0,1,2.3,1.1,24.92,24.92,0,0,1,8.4,7.1,22.45,22.45,0,0,1,2.8,4.7c.2.4.7,1.1.2,1.5a3.19,3.19,0,0,1-1.4.3,13.55,13.55,0,0,1-3.5.1c-1.3-.1-1.3,1.9,0,2,1.9.2,4.6.2,6.2-.9,1.8-1.3.4-3.6-.3-5a27.48,27.48,0,0,0-7.6-9c-1.6-1.2-8.3-6.3-9.4-2.3a4.62,4.62,0,0,0,.2,2.3c.4,1.3.8,2.5,1.3,3.7.9,2.2,1.8,4.4,2.9,6.6.9,1.9,1.9,4.1,3.5,5.5s4,1.6,6.1,1.7a47.06,47.06,0,0,0,7.5-.3c1.8-.2,4.4-.3,5.6-1.9a4.22,4.22,0,0,0-.3-4.9,50,50,0,0,0-5.1-5.2c-3.8-3.7-7.6-7.3-11.4-10.9a103.44,103.44,0,0,0-12.4-10.4c-4.3-2.9-9.3-5.4-14.7-5.1-1.1-.2-1.1,1.8.2,1.7Z"/></g></g></g></g></svg>