<svg xmlns="http://www.w3.org/2000/svg" viewBox="0 0 196.86 108.56"><defs><style>.cls-1{fill:none;stroke:#152d35;stroke-linecap:round;stroke-linejoin:round;stroke-width:1.5px;}</style></defs><title>Middel 1</title><g id="Laag_2" data-name="Laag 2"><g id="Laag_1-2" data-name="Laag 1"><g id="objects"><g id="hat"><path class="cls-1" d="M150.65,16.1c-5.2-1.7-10.3-3.41-15.5-5-6.3-2-12.7-3.91-19-5.8-4.3-1.3-8.7-2.6-13-4-3.4-1.1-6.7-.4-9.8.9-10,4-20.3,7.3-30.6,10.7-7.7,2.5-15.4,5-22.9,7.9-3.7,1.4-7.5,2.9-11.2,4.4-.2.1-.3.2-.7.4,3.5,2,6.8,4,10.2,5.9,5.1,3,10.2,5.8,15.9,7.5a73.46,73.46,0,0,1,10.2,3.8c2.1,1,4.1,2.2,6.3,3.1a28.84,28.84,0,0,0,5.9,1.8"/><path class="cls-1" d="M76.15,52.6c-1.4,0-2.2,1.09-3.1,1.7A42.08,42.08,0,0,1,69,57.1a54.79,54.79,0,0,0-11.6-7.5,22.56,22.56,0,0,0-3.3-1.3,4.19,4.19,0,0,0-5,1.7,4.5,4.5,0,0,0,.5,4.8,32.84,32.84,0,0,0,4,4.3c2.7,2.59.9,3.5-1.2,4.8-3.3,2-13.3,4.5-21.8,2.9C13.55,63.6,3.05,51.7.75,30"/><path class="cls-1" d="M194.85,60.49c3.7-13.9-1.3-23.4-8.1-21.09-4.5,2.2-7.5,5.4-12.1,7.2a34.21,34.21,0,0,1-10.9,2.7,18.32,18.32,0,0,1-12.4-4.2c-4.8-3.7-8.9-8.3-13.2-12.5a30,30,0,0,0-6.5-4.8,30.26,30.26,0,0,0-3.2-1.2"/><path class="cls-1" d="M69.85,59.29c-4.2,4.4-7.9,9.2-9.7,15.2-1.3,4.41.6,9.2,4.1,12.2,4.5,3.8,9.7,5.1,15.4,5.1,2.3,0,4.5-.3,6.7.8s3.7,2.4,3.5,5c-.4.5-1-.2-1.5.2"/><path class="cls-1" d="M68.85,57.6c-4,3-7.6,6.5-9.7,11.2-2.7,6.2-2.6,12,1.9,17.7a22.63,22.63,0,0,0,7.2,6.2,2.84,2.84,0,0,0,1.2.4c3.5.3,6.8,1.4,10.2,2.3,2.1.6,4.2.9,6.3,1.5a5.82,5.82,0,0,1,3.8,3.2c.6,1.2,0,1.9-1.3,1.6-3.5-.8-7.1-1.6-10.6-2.7a37.46,37.46,0,0,0-4.3-1.6"/><path class="cls-1" d="M124,28.1c.4.7.2,1.09-.3,1.7a50.43,50.43,0,0,0-5.7,8c-.3.6-.9,1.3-.3,2s1.4.3,2.2-.1a30.13,30.13,0,0,0,3.1-1.6c.7-.4,1.3-.5,1.8-.1s.4,1.2.2,1.8a20.77,20.77,0,0,1-2.3,5.3c-1,1.4-.7,2,1,2.5,1.3.3,1.2,1.2.8,2a17.35,17.35,0,0,1-7.5,7.9,51.39,51.39,0,0,1-17.1,5.2c-2.8.3-5.8.5-8.7.6l-3.8.3"/><path class="cls-1" d="M126.85,27c.6,1.8.4,3.8.6,5.7.4,3.8.7,7.71,1,11.5.3,4.3-1.2,7.5-5,9.71-.8.4-1.4,1.4-2.5,1"/><path class="cls-1" d="M69.15,57.29c.7,3,3.1,3.9,5.5,4.8a26.24,26.24,0,0,0,10,1.6c1.8,0,3.4.7,5.2.6q4.35-.3,8.7-.9c.1,0,.6-.1.5-.5"/><path class="cls-1" d="M151.55,16.29c-5.5,2.3-10.9,4.7-16.4,7-2.4,1.1-4.9,2-7.2,3.2-1.1.6-2.5.5-3.6,1.2a25.62,25.62,0,0,1-8,3.91c-6.6,1.7-12.3,5.4-18.5,7.8-3,1.2-5.3,3.59-8.2,5a36.48,36.48,0,0,0-4.8,2.79,3.36,3.36,0,0,1-1.4.3"/><path class="cls-1" d="M94.25,41.29c-1.5-.2-2.7.8-4,1.4-2.7,1.3-5.8,1.71-8.5,2.8a28,28,0,0,0-12.2,9"/><path class="cls-1" d="M69.55,93.29c-.1,1,.5,1.4,1.2,1.8a28.14,28.14,0,0,1,7.4,9,10.64,10.64,0,0,1,.9,2.5,1.33,1.33,0,0,0,2.3.8,3,3,0,0,0,.8-3.8c-.9-1.7-2.6-2.6-4.2-3.7-.4-.3-1-.4-1.2-1"/><path class="cls-1" d="M65.65,43.79c-.1,3.8.1,7.6,1.7,11.2.2.3-.1.5,0,.7"/><path class="cls-1" d="M66.85,44.6a86.3,86.3,0,0,1,2.3,9.8"/><path class="cls-1" d="M123.15,28.1a1.48,1.48,0,0,0-1.7-.1,64,64,0,0,0-6.5,2.9c-.5.3-1,.5-1,1.2"/><path class="cls-1" d="M86.75,44.29a1.45,1.45,0,0,1-.7,1c-2.7,1.8-5,4-7.6,5.9-3.1,2.1-5.6,5-8.2,7.6"/><path class="cls-1" d="M80.75,96c.1,1,1.1,1,1.7,1.5,1.3,1,2.9,1.8,3.5,3.5"/><path class="cls-1" d="M86.75,101.69a10.08,10.08,0,0,1,.8,3.21,13.11,13.11,0,0,1-3.8-1.5c-.7-.3-1.3-1-2.2-.8"/><path class="cls-1" d="M69.35,54.79a2.78,2.78,0,0,0,0,1.8"/></g></g></g></g></svg>