<svg xmlns="http://www.w3.org/2000/svg" viewBox="0 0 173.5 94.43"><defs><style>.cls-1{fill:none;stroke:#152d35;stroke-linecap:round;stroke-linejoin:round;stroke-width:1.5px;}</style></defs><title>Middel 3</title><g id="Laag_2" data-name="Laag 2"><g id="Laag_1-2" data-name="Laag 1"><g id="objects"><g id="notebook"><path class="cls-1" d="M21.28,78.88c42.9.9,85.8.1,128.6.4a18.69,18.69,0,0,0,.4-4.6c0-8-.1-16.1,0-24.1.1-5.7,0-11.3.2-17,.3-8.5.1-17.1.1-25.6a28.45,28.45,0,0,0-.4-4.1,2.58,2.58,0,0,0-2.6-2.6,95.27,95.27,0,0,0-10.7-.1c-.4,0-.9.1-1.3.1-8.1.1-16.2.1-24.3.2-8.6.1-17.2.2-25.8.2-8.4,0-16.7-.3-25.1-.3-4.4,0-8.9.2-13.3.1-5.6-.1-11.1-.5-16.6-.7a35,35,0,0,0-6.5.4,3.18,3.18,0,0,0-3.2,3.5c0,9.6-.1,19.2-.2,28.8-.1,12.1-.2,24.3-.1,36.4,0,3.1-.3,6.3.5,9.3.1.4.4.6.4.9"/><path class="cls-1" d="M85.78,4.88c-1.4,1.7-3.5,1.4-5.2,1.4-16.3.1-32.7.1-49,.1-1.8,0-3.6-.2-5.6-.3-.1,2.6-.3,5.2-.4,7.7-.1,5.5-.2,11.1-.2,16.6s.5,11.1.5,16.6c0,6.9-.2,13.8-.3,20.7,0,1.9.2,3.9.2,5.8,0,1,.4,1.3,1.3,1.3h57c5.4,0,10.8-.3,16.3-.1,13.6.3,27.2.5,40.8.3,3.5-.1,6.3.6,8.8,2.9"/><path class="cls-1" d="M6.18,92.08c.9.9-6.5.9-5.3.9,20.4,0,39.4-.3,59.8.1,31.5.6,63.1.1,94.6.3a5,5,0,0,0,2.1-.2"/><path class="cls-1" d="M.88,90.58c.4,1-.5,1.1.4,1.1,16.1.1,32.3.3,48.4.1,27.4-.3,54.7-.1,82.1-.1,4.7,0,9.3.1,14,.1h10.7"/><path class="cls-1" d="M86,5.68c1.1.9,2.3.7,3.6.7h55.2v68.2"/><path class="cls-1" d="M20.88,78.88c-6.9,2.6-13,6.9-19.4,10.5-5.5,3.1,175.1-5.3,155-5"/><path class="cls-1" d="M158,84.28c4.1,2.1,8.2,4.2,12.5,6a6,6,0,0,1,1.3.9c.4.3,1.2.3.9,1.1s-.8.8-1.5,1c-3.7.7-7.5.2-11.2.3a6.23,6.23,0,0,0-1.9.1"/><path class="cls-1" d="M169.88,90.38c.1,1.5-1.2,1.3-2.1,1.5-2.9.5-5.9.2-8.8.2h-2.2"/><path class="cls-1" d="M25.58,74.78l-1.5.9"/></g></g></g></g></svg>