<svg xmlns="http://www.w3.org/2000/svg" viewBox="0 0 168.48 327.1"><defs><style>.cls-1{fill:none;stroke:#152d35;stroke-linecap:round;stroke-linejoin:round;stroke-width:1.5px;}</style></defs><title>Middel 4</title><g id="Laag_2" data-name="Laag 2"><g id="Laag_1-2" data-name="Laag 1"><g id="objects"><g id="board"><path class="cls-1" d="M51.53,141.15c.09-.3,0-.8.2-1a22.77,22.77,0,0,0,2.4-6.6,136,136,0,0,0,3-14.1c.4-2.5.8-5,1-7.4.3-2.7.7-5.3.9-8,.3-2.9.3-5.8.6-8.7.3-3.4.3-6.9.6-10.3v-.7c0-3.2.1-6.3.2-9.4,0-3.7-.2-7.4-.2-11.2q0-3.3-.3-6.6c-.2-2.5-.3-5-.5-7.5-.2-2.7-.5-5.4-.9-8-.5-3.5-1-7-1.7-10.4a86.4,86.4,0,0,0-3.8-13,49.27,49.27,0,0,0-8.6-15.1c-.5-.6-1.1-1.2-1.6-1.8a1.5,1.5,0,0,0-2.4,0,38.16,38.16,0,0,0-5.5,7.2,68.45,68.45,0,0,0-7,17,108.4,108.4,0,0,0-2.5,11.3c-.6,3.6-1.1,7.3-1.4,11-.3,3.3-.6,6.5-.8,9.8-.2,3-.3,6-.4,9-.1,3.4-.21,6.9-.21,10.3.1,4.5.21,9,.41,13.5.2,3.7.4,7.4.8,11.1q.44,4.2.9,8.4c.4,3.4.9,6.9,1.4,10.3a45,45,0,0,0,1.5,7.3"/><path class="cls-1" d="M27.53,128.65c.09.3.3.5.3.7,1.7,6.9,3.09,13.4,6.5,19.7,1,1.5,1.7,3.1,3.4,3.8a10.16,10.16,0,0,0,8.2-.2c2.1-1.1,3.1-3.8,4-6.1.4-1,1.1-2,2.1-1.9,61.5,4.7,1,55.4.4,58.4"/><path class="cls-1" d="M41.53,4c-3.91,4.3-6.2,9.4-8.3,14.6-4.2,11.3-6.1,22.9-7.1,34.9a304.3,304.3,0,0,0,3.4,71.8c0,1-1,1.3-1.5,1.9a4.35,4.35,0,0,0-.8,1.5,11,11,0,0,0-1.1,1c-2.3,2.7-5.3,5.2-8.9,4.7"/><path class="cls-1" d="M41.53,3.55c.59.9,1.3,1.8,1.9,2.8a66.43,66.43,0,0,1,8.3,16.1,65.39,65.39,0,0,1,2.6,10.8c.59,3.4,1.09,6.9,1.5,10.3s.79,6.6,1.09,9.9c.2,2.3.3,4.7.5,7.1.5,6.9.5,13.9.41,20.8,0,3.3-.1,6.6-.3,9.8-.2,3.6-.41,7.3-.8,10.9-.3,3.2-.6,6.4-1.1,9.6-.4,3-.8,5.9-1.2,8.9a.76.76,0,0,1-.1.4c-.7,1-.5,2.2-.5,3.3"/><path class="cls-1" d="M50,124.45a1.28,1.28,0,0,0,.4-1,23.72,23.72,0,0,0-.9-6.5c-.2-.5.09-1.1-.41-1.5a8.58,8.58,0,0,0-3.7-2.5,14.49,14.49,0,0,0-8,.1c-2.4.7-3.59,2.4-4.09,4.8a13.32,13.32,0,0,1-.5,1.9.6.6,0,0,1-.1.4c-1.4,1.1-1.6,3-2.8,4.3-.1.1-.2.1-.3.2"/><path class="cls-1" d="M41.83,148.05c-.3-.5,0-1-.1-1.5-.2-1.4-.9-2.7-1.1-4.2-.4-2.7-1.1-5.4-1-8.2a6.07,6.07,0,0,1,.8-2.6c.3-.6,1.5-.4,2,.1a4.9,4.9,0,0,1,1,4c-.3,2.9-.8,5.8-1.1,8.7a4.49,4.49,0,0,1-.6,1.2"/><path class="cls-1" d="M29.33,126.25c.79,1,.7,2.2.9,3.3a63.78,63.78,0,0,0,2.2,8.6c.3.9.9,1.7.8,2.7"/><path class="cls-1" d="M42.33,131.35c.59-.7,1.4-.4,2.09-.2a8.62,8.62,0,0,1,5.7,5.3,18.79,18.79,0,0,1,1,2.7c.1.3.1.7.5.9"/><path class="cls-1" d="M48.33,114.85c-1.5.8-1.6,1-1.1,2.6a48.34,48.34,0,0,1,2.2,6.4c0,.2.3.4.5.6"/><path class="cls-1" d="M34.62,115.25c1.91.5,1.91,1.8,1.3,3.2a29.22,29.22,0,0,0-1.9,5.2.84.84,0,0,1-.7.7"/><path class="cls-1" d="M40.33,131.45c-.6-.4-1.1,0-1.5.2a10.68,10.68,0,0,0-5,6.4,2.38,2.38,0,0,1-.6,1.1"/><path class="cls-1" d="M53.72,121.85a14.46,14.46,0,0,1-1.1-2.9,10,10,0,0,0-2.2-3.2,1.47,1.47,0,0,0-.9-.2"/><path class="cls-1" d="M32.72,120.35c.1.2.2.3.2.5-.2,1.8.5,3.5.3,5.3a28.84,28.84,0,0,0,.2,4.1"/><path class="cls-1" d="M49.92,124.55a19.62,19.62,0,0,1-.3,5.4"/></g><g id="bike"><path class="cls-1" d="M29.62,294.85a2,2,0,0,1,.1-1.5c1.6-3.5,3.2-7.1,4.8-10.6.9-2.1,1.9-4.2,2.7-6.3a7.22,7.22,0,0,0,.5-5,3.87,3.87,0,0,0-2.8-2.6,14.89,14.89,0,0,0-4.2-.3,44.29,44.29,0,0,0-5.1.6,32.19,32.19,0,0,0-13.2,6.2,29.1,29.1,0,0,0-7.9,9.2,30.14,30.14,0,0,0-3.1,8.2,30.92,30.92,0,0,0-.59,8.6,23.92,23.92,0,0,0,4.09,11.9,22.27,22.27,0,0,0,9.7,8.2,19.91,19.91,0,0,0,5.91,1.6c1,.1,2.09.1,3.09.2a23.08,23.08,0,0,0,3.71-.2c1.79-.2,3.5-.3,5.29-.6,4.21-.6,8.21-1.7,11.6-4.4a26,26,0,0,0,7.2-8.9,35.75,35.75,0,0,0,3.41-9.6,23.15,23.15,0,0,0,.59-6.5,16.1,16.1,0,0,0-3.8-10.3,38.12,38.12,0,0,0-8.09-6.9c-.41-.2-.6-.7-1.1-.7"/><path class="cls-1" d="M84.83,306.35a8.27,8.27,0,0,0,1.29,4.1c2,4,5.41,6.6,9.41,8.4a36.57,36.57,0,0,0,7.9,2.6,52.92,52.92,0,0,0,8.9,1.2,26,26,0,0,0,5.6-.3,19.31,19.31,0,0,0,5.2-1.5,29,29,0,0,0,9.6-7,31.65,31.65,0,0,0,4.8-7.1,34.59,34.59,0,0,0,2.5-6.7,28.43,28.43,0,0,0,.7-9.2,30,30,0,0,0-7.1-16.9,27.35,27.35,0,0,0-8.4-6.7,25.61,25.61,0,0,0-8.1-2.6,37.25,37.25,0,0,0-4.7-.4,28.5,28.5,0,0,0-11.2,2.4,16.57,16.57,0,0,0-4.1,2.3c-1.5,1.1-1.6,1.3-.8,3.1a18.64,18.64,0,0,0,2.9,4.4,1.49,1.49,0,0,1,.4,1.4"/><path class="cls-1" d="M27.83,297.55a18.11,18.11,0,0,0,1.5-2.2,2.2,2.2,0,0,1,.29-.5c1.21-.3,1.71-1.5,2.41-2.3a92.44,92.44,0,0,0,6.5-9.8c1.2-2.2,2.4-4.4,3.4-6.7.2-.4.7-.8.4-1.4a7.46,7.46,0,0,0,.9-1.5c.6-.8.8-.9,1.7-.3a25.33,25.33,0,0,1,6.4,5.8,31.41,31.41,0,0,1,4.4,7.5,34.57,34.57,0,0,1,1.9,7,35.6,35.6,0,0,1,.2,6.5,25,25,0,0,1-1.5,7.2,25.56,25.56,0,0,1-5,8.6,33.44,33.44,0,0,1-7.5,6.5,28.76,28.76,0,0,1-8.1,3.3,53.48,53.48,0,0,1-9.8,1.1"/><path class="cls-1" d="M83.12,306.85c0,.7-.59,1.1-1,1.5-.7,1-1.5,1.9-2.29,2.9a8.71,8.71,0,0,0,2.5,1.8c2.59,1.8,5.29,3.4,8,5a51.41,51.41,0,0,0,14.59,5.9,57.11,57.11,0,0,0,8.3,1.1c3.4.2,6.8.2,10.3.1,3.3-.1,6.7-.3,10-.5,3.5-.2,6.9-.5,10.4-.8,2.1-.2,4.3-.5,6.41-.7,1-.1,2-.1,2.9-.2,1.1-.1,2.3-.2,3.4-.4,1.3-.2,2.6-.3,3.9-.4,1.5-.1,2.9-.3,4.4-.4.9,0,1.8-.3,2.5.6,0,.1.2,0,.3,0"/><path class="cls-1" d="M75.53,237.05a3.38,3.38,0,0,1-1.5,1.1c-3.1,1.5-6.3,2.8-9.5,4a23,23,0,0,0-6.6,3.4,6.76,6.76,0,0,0-2.7,4.8,13,13,0,0,0,.6,4.8,56.42,56.42,0,0,0,3.09,6.6c1.2,2.3,2.5,4.6,3.7,6.9,1,1.9,2.1,3.9,3.1,5.8a9.31,9.31,0,0,1,1.2,5.2,9.19,9.19,0,0,1-.7,2.9,43.93,43.93,0,0,0-2.1,6.1,3.51,3.51,0,0,1-2.7,2.8,4.67,4.67,0,0,0-1,.5c-.4.3-.3.7.2.9a3.75,3.75,0,0,1,1.1.6"/><path class="cls-1" d="M45.53,211.75c.59-.9,1.7-1.2,2.5-1.7a9.85,9.85,0,0,0,3.2-2.9,8.13,8.13,0,0,0,1.2-4.2,5,5,0,0,0,.1-2.1c-.3-1.3-.5-1.4-1.6-1.5a18.21,18.21,0,0,0-5.2.3,30.68,30.68,0,0,0-5.2,1.4,17.19,17.19,0,0,0-7.41,5.3,14,14,0,0,0-2.9,6,5,5,0,0,0,0,2.7c.4,1,.7,1.3,1.8,1.3a2.46,2.46,0,0,1,1.2.1c.4.2.8-.2,1.2-.3,2.3-1,4.6-1.8,6.91-2.7a35.51,35.51,0,0,1,4.2-1.7"/><path class="cls-1" d="M96.33,229.75a1.78,1.78,0,0,1-.8-.7,21.55,21.55,0,0,0-7.2-7.5,22.94,22.94,0,0,0-6.21-2.7c-3.09-.8-6.2-1.6-9.29-2.3-2.71-.6-5.3-1.4-8-2.1a17.82,17.82,0,0,0-6.5-.7,2.74,2.74,0,0,0-1.71.6"/><path class="cls-1" d="M59.22,227.65a19.4,19.4,0,0,1-2.4,6.6c-.9,1.7-1.9,3.4-2.9,5a3.84,3.84,0,0,1-3.1,1.9c-1,.1-2,.1-3,.1-3,.1-6,.1-9.1.2-2.1.1-4.1,0-6.2.1-.5,0-.7-.3-1.1-.4"/><path class="cls-1" d="M97.33,234.75a1.29,1.29,0,0,0-.41,1,24.55,24.55,0,0,1-1.5,6.5,6.07,6.07,0,0,0-.5,1.8c0,.5-.3.8-.8,1.1a6.26,6.26,0,0,0-1.09.7c-.1.1-.3.1-.3.2-.2,1.4-1.4,2.2-2.2,3.1a66.84,66.84,0,0,1-6.91,6.2,29.62,29.62,0,0,0-6.7,7.4c-.3.6-.59,1.2-.9,1.8a3,3,0,0,0,.5,3.7c.8.9,1.6,1.8,2.5,2.7,1.6,1.5,2.9,3.2,4.4,4.6l.1.1c0,1.2,1.2,1.6,1.6,2.6s1,1.8,1.5,2.8a28,28,0,0,0,3,4.6,23.91,23.91,0,0,0,2.3,2.2,16.66,16.66,0,0,1,2.3,2.3,3.94,3.94,0,0,1,.6,3.9,1.27,1.27,0,0,0-.1.6"/><path class="cls-1" d="M94.33,245.15c.5,1-.1,2-.41,2.9-.7,2.2-1.5,4.4-2.3,6.6-1.09,3.1-2.29,6.1-3.4,9.1-1.3,3.4-2.6,6.8-3.9,10.3a3.37,3.37,0,0,1-.8,1.7"/><path class="cls-1" d="M42.22,274.55a2,2,0,0,1-1.1-2,11.4,11.4,0,0,1,.8-4,49.81,49.81,0,0,1,2.91-7.7c.79-1.6,1.7-3.2,2.5-4.9a21.59,21.59,0,0,0,1.59-4.3,6.08,6.08,0,0,0,.1-1.9c0-.5-.4-.4-.6-.5a25.12,25.12,0,0,1-2.7-.4,30.72,30.72,0,0,0-5.3-.5,11.1,11.1,0,0,0-6.3,1.7,5.82,5.82,0,0,0-2.59,3.6,4.51,4.51,0,0,0,.7,3.6,7.89,7.89,0,0,0,5.3,3.4,3.72,3.72,0,0,0,3.09-.3,2.3,2.3,0,0,0,1-1.6,4.53,4.53,0,0,0-1.79-4.7,37.1,37.1,0,0,0-4.6-3c-.4-.3-.8-.5-1.2-.8"/><path class="cls-1" d="M55.72,214.25c-.3.4-.8.4-1,.7-.8.9-1.8,1.6-2.5,2.5-.9,1.2-1.5,2.6-2.3,3.9s-.59,2.7-1,3.9a3.63,3.63,0,0,1-.7,1.7c-.6.5-.5,1.4-.6,2.1-.2,1-.29,2.1-.5,3.1a2.82,2.82,0,0,1-2.9,2.5c-2.1.1-4.1-.1-6.2,0s-4.4.3-6.5.7c-1.3.2-2.7.4-4,.7a3.58,3.58,0,0,0-1.1.4,1.25,1.25,0,0,1-.59.1"/><path class="cls-1" d="M48.72,226.65a1.5,1.5,0,0,1,.4,1.1c0,1.4-.2,2.8-.29,4.1a7.35,7.35,0,0,1-.8,3.2,4.68,4.68,0,0,1-4.1,2.3c-3.3.2-6.7.3-10,.5-.7,0-1.5.1-2.2.1a1.59,1.59,0,0,0-1.2.4"/><path class="cls-1" d="M84.53,304.85c-.7-.2-1.3.2-2,.3A2,2,0,0,1,81,305c-1.1-.5-.91-1.3-.41-2a5.84,5.84,0,0,1,1.71-1.4,8.39,8.39,0,0,0,3.09-5.8,11.09,11.09,0,0,0-1.5-7.1,13.13,13.13,0,0,0-2-2.7,6,6,0,0,0-.9-.8"/><path class="cls-1" d="M69.42,256.45c-.7.6-.7,1.6-1,2.4a26.25,26.25,0,0,0-1.3,5.4,13.05,13.05,0,0,0,2,8.6,29.4,29.4,0,0,0,4.71,5.3c1.4.4,2.09,1.7,2.9,2.7a20,20,0,0,0,1.6,1.4c.7.6,1.2,1.2,1.9,1.8s.7.7.4,1.5c-.4,1.1-.6,2.3-.9,3.4a71.55,71.55,0,0,0-1.4,9.1,4.94,4.94,0,0,1-.5,2.4"/><path class="cls-1" d="M74.83,278.55a3.14,3.14,0,0,0-.5-2.3,9.7,9.7,0,0,1-.6-3c-.5-4.2-.7-8.5-2-12.6a34.54,34.54,0,0,0-1.4-3.4,2.55,2.55,0,0,0-.6-.8c-.1-.1-.2-.1-.2-.2-.3-1.6-1.6-2.4-2.6-3.4-.3-.4-.8-.6-1.1-1a1.22,1.22,0,0,0-.9-.4"/><path class="cls-1" d="M89.22,278.05a2,2,0,0,0,1.3-.4,11.32,11.32,0,0,1,1.3-1,1.72,1.72,0,0,1,2.4.1,12.88,12.88,0,0,1,1.6,1.7c2.6,2.7,5.3,5.3,7.9,8l7,7c.3.3.6.5.6,1"/><path class="cls-1" d="M93.12,228.75c-2.5,1.1-4.59,2.8-7,4.2a35.9,35.9,0,0,1-8.29,3.6c-.5.1-1,.3-1.5.4a.87.87,0,0,1-1.21-.5,2.09,2.09,0,0,0-1.59-1.3c-2.1-.8-4.2-1.5-6.2-2.2s-3.8-1.5-5.6-2.3a2.93,2.93,0,0,0-1.6-.4"/><path class="cls-1" d="M60,230c.09.6-.3,1.1-.1,1.7a3.67,3.67,0,0,0,.9,1.6,11.65,11.65,0,0,0,5.3,2.7,26.23,26.23,0,0,0,7.9.8,4.87,4.87,0,0,0,1.2-.1"/><path class="cls-1" d="M111.72,294.55a14.16,14.16,0,0,0-2,.4,33,33,0,0,1-7.7.7,45.2,45.2,0,0,1-5.3-.6,12.31,12.31,0,0,1-2-.2c-.1,0-.3.1-.4.1a30.48,30.48,0,0,0-5.2,4.3c-1.5,1.6-2.7,3.6-4.3,5.1a.62.62,0,0,0-.2.7.6.6,0,0,1,.1.4c-.1.2-.2.5,0,.6a1.69,1.69,0,0,0,1,.3l3.7-.3c.7-.1.9-.4.9-.9s-.3-.4-.6-.4a15.06,15.06,0,0,0-3.6.6,4.83,4.83,0,0,1-1.2.1"/><path class="cls-1" d="M87.83,279.55c.5-.3.79-.9,1.29-1.3.3-.3,0-.7.3-1.1a10.48,10.48,0,0,1,2-2.2,5.37,5.37,0,0,1,1.6-1,2.14,2.14,0,0,1,2.7.5c.8.9,1.7,1.8,2.5,2.7a1.52,1.52,0,0,0,1.1.6c.4,0,.7.4.9.7,2.1,2.4,4.3,4.8,6.4,7.2,1.71,1.9,3.41,3.7,5.1,5.6.6.7,1.3,1.4,1.9,2.2"/><path class="cls-1" d="M78.12,301.05c-.09-.1,0-.4-.2-.5a3.85,3.85,0,0,1-1.09-1.5,9.27,9.27,0,0,0-3.91-4.4,8.47,8.47,0,0,0-3.2-.9c-1.2-.1-2.3.1-3.4,0a2,2,0,0,1-1.3-.2,1.18,1.18,0,0,0-.8-.1,4.85,4.85,0,0,1-1.7,0,.58.58,0,0,0-.8.5c-.2.7,0,1.1.5,1.3a5.27,5.27,0,0,0,1.2.3c1.1.1,2.2.1,3.3.2a21.23,21.23,0,0,1,4.4.3,5,5,0,0,1,2.71,2,50.68,50.68,0,0,1,3.5,6.5c.7,1.4,1,2.9,2,4.2.2.2-.1.4.09.6"/><path class="cls-1" d="M77.42,281.85c-.3.5-.2,1-.4,1.5a4.81,4.81,0,0,1-1.8,2.4c-2.3,1.8-4.4,3.7-6.7,5.5a8.87,8.87,0,0,1-2.5,1.4,2,2,0,0,0-1,.8"/><path class="cls-1" d="M92.62,246.05c-.7-.4-1.29.1-2,.2-1,.2-2,.3-3,.4-1.4.2-2.79.2-4.09.4-.91.1-1.91.1-2.8.2a54,54,0,0,0-5.8.9,37.45,37.45,0,0,0-4.5,1.2,2.38,2.38,0,0,0-1.1.6"/><path class="cls-1" d="M96.22,226.45c.2.7.1,1.4.3,2v.3c-.3,2,.7,3.8.8,5.7v.2c1.1.8.8,2,1.1,3.1a7.14,7.14,0,0,1,.2,2c.1,2.1-1,3.5-2.7,4.6a1.66,1.66,0,0,1-1.2,0"/><path class="cls-1" d="M23.83,238.65a1.12,1.12,0,0,1-.1-1c.2-.8-.3-1.1-.8-1.4a1.71,1.71,0,0,0-1.7-.1,3.73,3.73,0,0,0-1.5,2.7,7.78,7.78,0,0,0,.2,4,2.81,2.81,0,0,0,2.3,1.7c.4,0,.5-.2.7-.4"/><path class="cls-1" d="M45.53,211.85a1.42,1.42,0,0,0,1.09.3,15.13,15.13,0,0,1,7.6,1,4.62,4.62,0,0,1,1.5.9.1.1,0,0,0,.1.1c1.4.2,1.8,1.4,2.6,2.3a7.46,7.46,0,0,1,1.5,3.1,3.11,3.11,0,0,1,0,2.5,3.28,3.28,0,0,0,0,1v2.8c0,1.5-.7,2.1-2.2,1.7-.2,0-.3-.1-.5-.1-1.5,0-3,0-4.6-.1-1.1,0-2.3-.1-3.4-.1"/><path class="cls-1" d="M83.53,276.65a1.12,1.12,0,0,0-.5.7c-.6,1.9-1.3,3.8-1.8,5.8a11.73,11.73,0,0,1-.5,1.1"/><path class="cls-1" d="M54.22,215.75c.5.4,1.2.2,1.8.6a6.56,6.56,0,0,1,2.4,3.1c.3.6.5,1.3.8,2a.9.9,0,0,0,.6.6"/><path class="cls-1" d="M63.92,242.55a19.79,19.79,0,0,0,2.3,4c.7,1.1,1.7,2.1,2.5,3.2a7.27,7.27,0,0,0,.9.8,2,2,0,0,1,.6,2.3,10.43,10.43,0,0,1-.8,2.5"/><path class="cls-1" d="M49.22,222.45a2.82,2.82,0,0,0-3.7.8c-.2.3-.5.5-.7.8a4.89,4.89,0,0,1-1.3,1.2,2.55,2.55,0,0,1-3-.3,10.59,10.59,0,0,1-1.2-1,3.52,3.52,0,0,0-2.7-1"/><path class="cls-1" d="M22.62,244.65c0,1.1-.09,2.3-.09,3.4a6.16,6.16,0,0,0,.3,2,1.49,1.49,0,0,0,1.29,1.1,1.35,1.35,0,0,0,1.41-.8,7.94,7.94,0,0,0,.8-2.1,7.26,7.26,0,0,1,.79-2"/><path class="cls-1" d="M33.42,216.55c-.2.4,0,.7.3,1a10.53,10.53,0,0,1,1.8,2.5,11.72,11.72,0,0,1,.9,3.2"/><path class="cls-1" d="M33.62,250.25c-1.29-1-2.7-1.7-4.09-2.6a20.13,20.13,0,0,0-2.5-1.4,12,12,0,0,1,2.59-3.3,13.73,13.73,0,0,0,1.71-1.7,1.24,1.24,0,0,0,0-1.3,6.05,6.05,0,0,0-.91-1.3c-.2-.3-.8-.3-1.2-.4a5,5,0,0,0-2.1.1c-.29.1-.5.2-.5.5a8.77,8.77,0,0,1-1.2,3.9,14.93,14.93,0,0,1-1.2,1.4c-.3.4-1.2.1-1.5-.3a4.47,4.47,0,0,1,.7-4.8c.41-.5,1-.3,1.5-.5a3.55,3.55,0,0,1,1-.2"/><path class="cls-1" d="M84.53,306.05c-.41.2-.7.4-1.1.6-.2.1-.3.2-.5.1-.5-.3-1.1-.1-1.6-.1s-.5.3-.6.5c-.3.4-.5.9-.8,1.3a.9.9,0,0,1-.6.6"/><path class="cls-1" d="M26.83,239.55a13.42,13.42,0,0,0,2.59,1.5,3.61,3.61,0,0,1,1.41.6"/><path class="cls-1" d="M68.53,250a9,9,0,0,1-2,.9,3.45,3.45,0,0,0-1,.7"/><path class="cls-1" d="M24.22,244.15c.3.6.9.7,1.3,1.1l1.5.9"/></g></g></g></g></svg>