<?xml version="1.0" encoding="utf-8"?>
<!-- Generator: Adobe Illustrator 25.4.1, SVG Export Plug-In . SVG Version: 6.00 Build 0)  -->
<svg version="1.1" xmlns="http://www.w3.org/2000/svg" xmlns:xlink="http://www.w3.org/1999/xlink" x="0px" y="0px"
	 viewBox="0 0 945 374.8" style="enable-background:new 0 0 945 374.8;" xml:space="preserve">
<style type="text/css">
	.st0{display:none;}
	.st1{display:inline;fill:#152D35;}
	.st2{fill:none;stroke:#152D35;stroke-width:3;stroke-miterlimit:10;}
</style>
<g id="Layer_3" class="st0">
	<path class="st1" d="M715.2,161.8c-17.8,10.7-40.9,9.6-58.6-0.7c-4.3-2.5-8.3-5.6-11.8-9.2c-3.7-3.8-7.5-8.5-8.9-13.7
		c-0.8-2.9-0.8-6.3,1.6-8.4s6.2-2.1,9.3-1.9c6.7,0.5,13.7,1.7,19.6,5.1c4.1,2.4,8.2,4.8,12,7.5c3.1,2.2,9,6,8.7,10.4l2.1-0.9
		c-4.5-4.7-8.6-9.7-12.3-15c-3.5-5.2-7-11.2-7.2-17.7c-0.1-4,0.2-8.1,0.1-12.1c-0.1-4.3-0.4-8.6-0.8-12.8
		c-0.6-6.1-1.7-11.7-4.8-17.1c-6.1-10.2-16.9-17-27.6-21.6c-13.4-5.7-28.1-8.8-42.5-10.7c-16.1-2.2-32.4-2.5-48.6-0.9
		c-6.3,0.6-13.9,0.7-18.3,6c-3.7,4.5-4.3,10.6-4.7,16.1c-1.4,17.1-2.4,34.3-3,51.5c-0.3,8.8-0.5,17.5-0.6,26.3
		c-0.1,6-0.8,13.4,5,17.1c5.2,3.4,12.3,2.3,18.1,2.1l25.9-1.1l51.8-2l13-0.5c0.7,0,1.2-0.6,1.2-1.2s-0.6-1.2-1.2-1.2l-86.4-0.6
		c-6.5,0-13.4-0.7-19.9,0.1c-4.4,0.4-8.2,3.1-10,7.1c-3.9,8.4,0.4,17.7,8.5,21.6c12.2,6,25.3,0.2,36.5-5.3c0.6-0.4,0.8-1.1,0.4-1.7
		c-0.2-0.3-0.4-0.5-0.7-0.5c-6.3-1.5-12.7-2.8-19.2-3.9c-5.8-1-12-2.3-17.9-2.3c-4.5,0-7.8,2.4-8.4,7c-0.2,2.9-0.2,5.8,0,8.7
		l0.3,9.9l2.3,79.5c0.2,6.6,0.3,13.1,0.6,19.7c0.2,5.4,0.9,10.8,4.1,15.4c5.6,8,15.5,13.7,24.3,17.5c19.1,8.2,40.7,9.3,61,5.8
		c27.2-4.8,52.3-17.2,76.8-29.4l-1.5-0.2c2.9,3.3-3.9,7-6.3,7.9c-4.1,1.4-8.4,2.5-12.6,3.6c-8.2,2.1-16.6,3.9-25,5.3
		c-17.1,2.8-34.3,4.5-51.6,5c-34.7,0.9-69.5-1.8-104.1-5.1c-34.9-3.3-69.8-7.1-104.9-8.2c-34.2-1.1-68.7,0.4-102.3,7.6
		c-3.4,0.7-7.4,1.2-10,3.7c-2,1.9-2.7,4.8-1.8,7.4c2.1,6.5,9.7,9.4,15.6,11.1c18,5.1,36.7,6.2,55.3,7.3c39,2.3,78.1,3.3,117.2,2.9
		c39.1-0.3,78.2-1.9,117.1-4.8c38.6-2.9,77-7.1,115.4-12.5c4.9-0.7,9.8-1.4,14.6-2.1c3.8-0.6,8.3-0.6,11.6-2.9
		c5.3-3.8,4.1-11.3,2.8-16.7c-4.6-18.7-8.1-37.8-10.5-56.9c-2.3-19-3.3-38.2-3.2-57.3c0-4.2-0.3-8.8,1.4-12.8s5.2-5.8,9-6.8
		c4.3-1,8.8-1.6,13.2-1.8c4.9-0.4,9.8-0.7,14.7-0.9c9.5-0.2,19,0.1,28.5,1c1.6,0.2,1.6-2.3,0-2.5c-9.6-0.9-19.3-1.3-29-1
		c-8.8,0.3-18,0.6-26.7,2.5c-7.2,1.5-12.2,5.7-13.3,13.2c-0.4,4-0.6,8-0.4,12.1c0,4.8,0.1,9.6,0.2,14.5c0.6,18.8,2.3,37.5,5.2,56
		c1.5,9.4,3.2,18.8,5.2,28c1,4.6,2.2,9.2,3.2,13.8c0.8,3.3,1.5,7.2,0.4,10.5c-1.6,4.5-6.6,4.8-10.7,5.4c-4.7,0.7-9.4,1.4-14.1,2.1
		c-10,1.4-19.9,2.8-29.9,4c-19.2,2.4-38.5,4.5-57.8,6.3c-38.7,3.6-77.6,5.8-116.5,6.8c-38.7,1-77.5,0.7-116.2-0.8
		c-19.2-0.8-38.5-1.5-57.6-3.5c-9.5-0.9-18.8-2.6-28-5.1c-4-1.1-7.8-2.4-11-5.1c-2.9-2.5-5.5-6.9-1.5-9.8c3.1-2.2,8-2.6,11.7-3.3
		c4.3-0.9,8.6-1.6,12.9-2.3c8.6-1.4,17.3-2.4,26-3.2c17.1-1.4,34.3-1.9,51.5-1.5c34.9,0.7,69.7,4.3,104.4,7.7
		c34.5,3.3,69.2,6.4,103.9,5.9c16.8-0.2,33.6-1.4,50.3-3.6c8.4-1.2,16.8-2.6,25.1-4.5c4.2-0.9,8.4-2,12.6-3.1
		c4-0.9,7.9-2.1,11.7-3.5c4.2-1.7,10.3-6.9,6.2-11.6c-0.4-0.4-1-0.5-1.5-0.2c-38.3,19-81.2,39.5-124.8,27.3
		c-9.8-2.6-18.9-7.2-26.9-13.3c-4.1-3.2-8-7-9.5-12.1c-1.7-5.6-1.3-11.9-1.5-17.7l-2.1-73.5l-0.6-20.4c-0.1-3.5-0.2-7-0.3-10.4
		c-0.1-2.8-0.5-6.8,2.3-8.4c2.6-1.5,6.3-0.6,9.1-0.3c3.6,0.4,7.2,1,10.8,1.5c6.8,1.1,13.5,2.4,20.1,4l-0.3-2.3
		c-9.7,4.7-20.7,9.9-31.6,6.3c-4.5-1.5-8.8-4.7-10.4-9.4c-1.3-4-0.7-8.3,1.6-11.8c3.3-4.5,9.2-4,14.2-4l18.9,0.1l37.3,0.3l42.7,0.3
		v-2.5l-49.8,2c-15.9,0.6-32,1.8-47.9,1.9c-2.9,0-6-0.1-8.7-1.4c-3.4-1.6-4.6-4.9-4.8-8.5c-0.5-7.9,0.1-16.1,0.3-24
		c0.4-16.2,1.2-32.4,2.3-48.5c0.5-7.1,0.3-14.7,2.4-21.5c0.7-2.6,2.1-5,4.1-6.8c3.2-2.6,7.7-2.8,11.6-3.3
		c15.3-1.7,30.8-1.8,46.1-0.1c14.5,1.6,29.3,4.4,43,9.5c10.8,4,21.9,10,28.9,19.5c4.4,5.9,5.7,12.3,6.4,19.5
		c0.4,4.6,0.7,9.2,0.8,13.8c0.1,3.8-0.4,7.7-0.1,11.5c0.6,6.4,3.9,12.4,7.4,17.6c3.8,5.5,8.1,10.7,12.7,15.5
		c0.5,0.5,1.3,0.5,1.8-0.1c0.2-0.2,0.3-0.5,0.3-0.8c0.4-4.2-3.7-7.8-6.6-10.1c-4.1-3.2-8.4-6-12.9-8.6c-5.7-3.4-12.2-5.6-18.8-6.4
		c-5.5-0.7-12.9-1.8-16.6,3.4c-3.5,4.9-0.9,11.6,2,16.1c3.1,4.9,7.1,9.2,11.6,12.8c9,7.1,19.7,11.6,31,13
		c12.9,1.8,26.1-0.7,37.4-7.3c0.6-0.3,0.8-1.1,0.4-1.7C716.6,161.6,715.9,161.4,715.2,161.8L715.2,161.8z"/>
	<path class="st1" d="M777.1,371.2c-6.3,0.5-12-2.5-16.7-6.5c-4.7-4.2-8.8-8.9-12.3-14.1c-7.4-10.5-12.5-22.5-14.7-35.2
		c-2.2-13.1-0.8-26.5,4.1-38.8c4.5-10.8,11.9-20.2,21.5-27c9.2-6.6,20-10.8,31.2-12c11.1-1.1,22.3,0.8,32.4,5.6
		c21.8,10.1,36.2,31.4,37.3,55.4c0.9,13.7-1.5,27.4-5.3,40.5c-3.3,11.5-7.7,26.5-20.3,30.8c-2.7,1-5.6,1.2-8.5,0.6l0.5,2.1
		c19.4-16.8,33.2-41.5,33.2-67.5c0-23.3-12.6-46.3-33-57.9c-11.3-6.5-24.1-8.2-37-6.2c-13.5,2.2-26.4,7.4-37.6,15.2
		c-10.7,7.4-19.8,17.2-25.2,29.2s-7.2,25.5-4,38.2c1.3,4.8,3,9.5,5,14.1c1.7,4.2,3.9,8.2,6.4,11.9c6,8.8,14.3,15.5,23.5,20.6
		c3,1.7,6.1,3.1,9.2,4.5c1.5,0.6,2.7-1.5,1.3-2.2c-10.3-4.6-20.3-10.4-27.8-19c-5.8-6.6-9.6-14.6-12.6-22.8
		c-2.1-5.3-3.5-10.9-4-16.7c-0.4-6.4,0.3-12.8,2-19c3.5-12.1,10.5-22.9,20.1-31.1c9.7-8.3,21.1-14.4,33.3-18
		c12.8-3.8,26.5-4.8,39.1,0.1c20.7,8,35.5,29,38.2,50.7c3.1,25-8.1,50-25.3,67.8c-2.1,2.2-4.4,4.3-6.7,6.3c-0.5,0.5-0.5,1.3,0,1.8
		c0.1,0.1,0.3,0.3,0.5,0.3c6.2,1.3,12.4-0.9,17.2-4.8c5.2-4.2,8.3-10.3,10.7-16.4c5.3-13.3,8.4-27.4,9.4-41.7
		c0.8-13.6-1.2-27.5-7.5-39.6c-5.4-10.3-13.4-19-23.2-25.3c-9.7-6.3-21-10-32.6-10.5c-24.1-0.6-46.8,11.6-59.5,32.2
		c-6.9,11.9-10.2,25.5-9.6,39.2c0.7,13.5,4.6,26.7,11.4,38.4c3.4,5.8,7.3,11.3,11.8,16.3c4.2,4.7,9.1,9.1,15,11.4
		c2.8,1.1,5.9,1.6,8.9,1.3C778.7,373.5,778.7,371,777.1,371.2L777.1,371.2z"/>
	<path class="st1" d="M856.8,339.4c17.1-0.5,34.2,0.8,51.3-1.3c2.7-0.3,5.3-0.7,7.9-1.1c1.4-0.2,2.8-0.4,4.1-0.6
		c0.1,0,2-0.3,1.3-0.2l0.5-0.1c2.8-0.3,5.6-0.5,8.4-0.8c2.9-0.2,5.8-0.6,8.7-1.2c1.6-0.4,2.1-1.6,2.9-3c1.4-2.3,2.3-4.9,2.8-7.5
		c0.7-3.8,0.3-7.8-1.2-11.4c-0.4-1.1-1-2-1.7-2.9c-1.2-1.2-2.6-2.1-4.2-2.6c-4-1.5-8.1-0.2-12.2,0.2c-2.7,0.2-5.5,0.2-8.2,0.1
		c-2.3,0-4.6,0-6.9-0.2c-9.4-0.8-20.5-4.8-24.5-14.1c-4.7-10.6,3-23,10.1-30.6c1.9-2,4-3.9,6.2-5.7c2.2-1.7,4.7-3.3,7.5-3.4
		c4.8-0.1,8.4,3.9,10.5,7.8c4.8,8.8,3.8,20.6,0,29.7c-1.9,4.8-4.9,9.2-8.6,12.8c-3.4,3.2-8.5,6.3-13.4,5.1
		c-6.1-1.4-8.1-8.1-7.5-13.7c0.4-3.1,1.2-6.1,2.3-9c1-2.8,2-5.6,3.1-8.4c2.1-5.6,4.9-11,8.2-16c1.5-2.2,3.4-4.8,6.5-4.5
		c2.5,0.3,4.6,2.2,6.3,3.8c1.6,1.7,3.3,3.2,5.2,4.5c1.8,1.1,3.8,1.7,5.9,1.9c1.8,0.1,3.7-0.6,4.9-1.9c1.7-2.1,1.4-4.8,1.3-7.3
		c-0.4-6.3-0.9-12.7-1.7-19c-0.5-4.6-1.6-9-3.4-13.2c-1.6-4-4.7-7.2-8.6-9.1c-5.2-2.3-10.7-1.1-15.9,0.5c-5.5,1.7-10.9,3.6-16.8,3.1
		c-5.7-0.6-11.2-2.4-16.1-5.3c-5-2.8-9.7-6.1-14.1-9.8c-2.1-1.7-4.1-3.5-3.9-6.5c0.2-2.2,1.7-3.5,3.7-4.2c2.1-0.6,4.2-1,6.4-1.3
		c2.5-0.4,5-0.7,7.5-0.9c5-0.5,10-0.5,15,0.1c4.7,0.6,9.3,2.3,13.2,4.9c4,2.8,6.7,7,9.4,11c2.6,3.8,5.3,7.6,9.4,10
		c0.7,0.4,2-0.1,1.9-1.1c-2.7-20.4-13.4-39-29.7-51.6c-8.6-6.7-18.6-11.5-29.2-14c-12-2.9-24.4-3.4-36.7-3.5
		c-14.2,0-28.4,0.6-42.5-0.8c-1.6-0.2-1.6,2.3,0,2.5c24.3,2.5,49-1.5,73.1,3c10.8,1.9,21,5.9,30.1,12c8.3,5.7,15.3,12.9,20.8,21.3
		c6.2,9.3,10.1,19.9,11.6,31l1.9-1.1c-4.4-2.6-7.1-7-9.9-11.2s-5.8-7.9-10-10.6c-8.7-5.4-19.6-5.5-29.4-4.5c-2.5,0.3-5.1,0.6-7.6,1
		c-2.2,0.2-4.3,0.7-6.4,1.4c-2,0.7-3.6,2.1-4.5,4c-0.9,2.3-0.6,4.9,0.6,7c1.3,2.3,3.8,4,5.9,5.6c2.3,1.8,4.7,3.6,7.2,5.2
		c4.8,3.3,10,5.8,15.5,7.5c5.5,1.6,11.3,1.6,16.9,0.2c5.6-1.5,11.3-4.3,17.3-3.9c10.6,0.7,13.7,12.8,14.8,21.5
		c0.8,6.5,1.3,13.1,1.7,19.7c0.1,2.2,0.3,5.1-2.4,5.7c-2,0.2-4-0.2-5.6-1.3c-4.3-2.4-6.9-7.5-12.1-8.6c-6-1.2-9.4,4.9-12,9.3
		c-3,5.3-5.5,10.9-7.5,16.7c-2.1,5.8-4.6,12-4,18.2c0.5,5.4,3.5,10.6,9,12.1c5,1.4,10.2-0.9,14-3.9c8.3-6.4,13.2-17,14.3-27.2
		c1.1-9.5-0.9-21.8-9.7-27.3c-4.6-2.9-9.7-1.8-14,1.2c-4.7,3.4-8.9,7.5-12.2,12.2c-6.4,8.8-11.2,21.2-4.5,31.1
		c5.8,8.4,16.4,12,26.2,12.5c2.5,0.1,4.9,0.1,7.4,0.2c2.7,0.1,5.4,0,8.2-0.3c4.3-0.6,8.8-1.7,12.6,1.3c0.2,0.1,0.3,0.3,0.5,0.5
		c0.3,0.4,0.6,0.9,0.8,1.4c0.7,1.4,1.2,2.9,1.4,4.5c0.4,2.2,0.3,4.5-0.1,6.7c-0.3,1.3-0.7,2.6-1.2,3.8c-0.3,0.7-0.6,1.3-1,2
		s-1.2,1.5-1.4,2.2c0-0.2,0.5-0.2,0.1-0.1c-0.2,0-0.3,0.1-0.5,0.1c-0.5,0.1-1.1,0.2-1.7,0.3c-1.6,0.3-3.2,0.5-4.8,0.6
		c-3.1,0.4-6.2,0.7-9.3,1c-4.5,0.5-8.9,1.4-13.3,1.9s-8.7,1-13.1,1.2c-7.7,0.4-15.4,0.1-23.1,0c-5.4,0-10.8,0-16.2,0.2
		c-1.6,0-1.6,2.5,0,2.5L856.8,339.4z"/>
	<path class="st1" d="M909,189.7c-7.2-0.1-13.6-3.7-19.7-7c-6.3-3.5-12.9-6.5-19.6-9c-13.7-5-28.1-7.7-42.6-8.1c-4-0.1-8,0-12,0.2
		c-3.3,0.2-7.1,0.5-9.3,3.3c-0.6,0.8-0.3,2.2,0.9,2.1c21-0.9,42.9-0.7,62.2,8.7c5,2.4,9.6,5.4,13.8,9c1.2,1,3-0.7,1.8-1.8
		c-16-13.9-37.5-18.2-58.2-18.8c-6.5-0.2-13,0-19.5,0.3l0.9,2.1c2-2.5,5.6-2.5,8.5-2.7c3.6-0.2,7.1-0.3,10.7-0.2
		c7.2,0.2,14.3,0.9,21.4,2.2c13.9,2.7,27.3,7.5,39.7,14.3c6.7,3.6,13.6,7.4,21.4,7.5c0.7,0,1.2-0.6,1.2-1.2S909.7,189.7,909,189.7
		L909,189.7z"/>
	<path class="st1" d="M516.4,268.2c-1.7,12.1-3.9,25.9-12.5,35.2c-5,5.3-11.6,7.8-18.7,8.6c-8.6,0.8-17.2,1.1-25.8,1
		c-9,0.1-17.9-0.4-26.8-1.6c-8.6-1.2-17.1-3.2-25.6-5c-8.3-1.8-16.7-3-25.2-3.6c-8.4-0.5-16.8-0.3-25.2-0.4
		c-8.4,0.1-16.8-0.4-25.2-1.4c-7.9-1.1-16.1-2.9-23-6.9c-3.4-1.8-6.2-4.4-8.4-7.5c-2.2-3.4-3.9-7.1-5.1-11c-2.6-7.9-4.2-16-4.7-24.3
		c-1.2-16.7,0.7-33.4,2.6-50c2-17.6,3.5-35.3,4.2-53c0.7-17.9,0.6-35.8-0.1-53.8c-0.3-7.7-1-15.3-1.5-23c0-1.6,0.4-3.3,1.1-4.8
		c1.1-3.4,2.6-6.7,4.5-9.7c9-13,25.1-17.8,40.1-19.5c17.8-2,35.8-1.1,53.6-0.3c18,0.8,36,1.6,54,2.6c8.6,0.4,17.2,1.3,25.7,2.9
		c6.9,1.4,15.2,3.2,20.2,8.6c2.8,3,3.4,7,3.5,11c0.1,4.2,0,8.4,0,12.5L497.7,98l-0.1,22.1c0,4.1,0,8.1,0,12.2c0,2,0,4,0,6
		c0.2,2.2,0.1,4.4-0.2,6.5c-0.8,3.7-5.7,4.2-8.7,4.9c-3.8,0.9-7.6,1.5-11.4,2.1c-7.9,1.2-15.8,1.8-23.8,2c-16,0.4-32-0.8-47.8-2.3
		c-31.7-3-63.7-7.7-95.6-4.1c-7.7,0.9-15.2,2.3-22.7,4.2c-0.7,0.2-1,0.9-0.8,1.6c0.1,0.4,0.4,0.7,0.8,0.8
		c12.4,3.1,25.1,2.3,37.6,1.1c6.4-0.6,12.9-1.3,19.3-1.7c6.5-0.4,12.9-0.4,19.4,0c13,0.8,25.9,2.7,38.9,4
		c13.2,1.3,26.5,1.8,39.7,1.5c15-0.3,29.9-1.3,44.8-2.4c1.6-0.1,1.6-2.6,0-2.5c-26.3,1.8-52.8,3.6-79.2,1.4c-13-1.1-25.9-3-38.9-4.1
		c-6.5-0.6-13-0.8-19.5-0.6c-6.4,0.2-12.7,0.8-19,1.4c-14.1,1.4-28.6,3-42.5-0.5v2.4c15.9-4.1,32.2-5.5,48.6-5.4s32.8,1.7,49.1,3.4
		s32.9,3.5,49.5,4.2c16.2,0.6,32.4,0.1,48.4-2.9c3.7-0.7,7.8-1.3,11.3-2.7c1.4-0.5,2.7-1.4,3.7-2.6c1-1.4,1.5-3.1,1.4-4.9
		c0.2-8.4,0.1-16.9,0.1-25.3c0.1-15.7,0.1-31.3,0.2-47c0-7.6,1-16.2-5-22c-5.4-5.1-13.6-7-20.7-8.5c-8.6-1.6-17.3-2.5-26-2.9
		c-9.2-0.5-18.5-1-27.8-1.5c-18.5-0.9-37.1-2-55.7-2c-9-0.1-17.9,0.4-26.8,1.5c-8.2,1.1-16.3,3-23.7,6.8
		c-6.4,3.2-11.8,7.9-15.9,13.7c-1.9,3-3.4,6.2-4.5,9.5c-0.6,1.8-1.5,3.7-1.4,5.7c0.1,3,0.6,6.1,0.8,9.1c0.3,4.7,0.6,9.3,0.8,14
		c0.4,9.1,0.6,18.3,0.6,27.4c0,18.5-0.7,36.9-2.2,55.4c-1.5,17.6-4.1,35-5.1,52.6c-0.9,16.7-0.1,34,6,49.8c1.3,3.7,3.2,7.2,5.7,10.3
		c2.4,2.9,5.5,5.3,8.9,7c7.2,3.8,15.6,5.6,23.6,6.7c17,2.3,34.2,0.7,51.4,1.8c17.9,1.2,34.9,6.9,52.7,9c9.1,1,18.3,1.3,27.4,1.1
		c4.5-0.1,9.1-0.2,13.6-0.4c4.1-0.1,8.3-0.5,12.4-1.1c6.7-1.1,12.8-4.6,17.2-9.7c4.1-4.8,6.7-10.7,8.5-16.6c1.8-6.1,3-12.4,3.8-18.8
		C519,267.3,516.6,266.6,516.4,268.2z"/>
	<path class="st1" d="M292.7,152.2c-3.5-22.9-5.5-46-6.1-69.1c-0.3-11.5-0.3-23,0.2-34.5c0.2-4.2,0.7-9.5-3.5-12
		c-2-1.2-4.5-1.5-6.7-2c-2.7-0.6-5.5-1.1-8.3-1.6c-22.1-3.8-44.6-5.1-67.1-4.8s-45.1,1.9-67.5,3.9c-5.6,0.5-11.2,1-16.7,1.5
		c-5.2,0.3-10.4,1.2-15.5,2.6c-9.1,2.9-16.1,9.4-22,16.7c-6.2,8-12.1,16.3-17.5,24.8C56,86.7,51.2,96.1,47.3,106
		c-3.8,9.8-5.7,20.3-5.5,30.9c0,5.2,0.8,10.3,2.3,15.3c0.7,2.1,2,3.9,4.3,4.2s4.6-0.5,6.8-1.1c21.7-5.6,44.1-7.2,66.4-8
		c23.2-0.8,46.4-0.9,69.6-0.5c23.2,0.4,46.5,1.2,69.6,2.6c5.6,0.3,11.3,0.7,16.9,1.1c1.6,0.1,1.6-2.4,0-2.5
		c-22.7-1.6-45.4-2.7-68.1-3.4s-45.5-0.8-68.2-0.4c-21.9,0.4-43.9,0.9-65.6,4.2c-5.3,0.8-10.6,1.8-15.9,3c-2.6,0.6-5.2,1.3-7.8,1.9
		c-2.2,0.6-4.5,0.9-5.4-1.7c-0.8-2.4-1.3-4.8-1.6-7.3c-0.4-2.6-0.6-5.3-0.7-7.9c-0.1-5.2,0.4-10.3,1.3-15.4
		c4-20.7,15.6-38.6,27.5-55.5c5.3-7.5,10.6-15.4,18-21.1c3.7-2.9,8-5.1,12.6-6.3c5.1-1.2,10.2-1.9,15.4-2.2c22-2,44-3.9,66-4.7
		s44-0.5,65.8,2c5.4,0.6,10.9,1.4,16.3,2.3c2.7,0.5,5.3,1,8,1.5c2.2,0.5,5,0.7,6.9,2s2.1,3.6,2.1,5.7c0,2.6-0.2,5.2-0.2,7.8
		c-0.2,5.7-0.2,11.3-0.2,17c0,22.4,1.4,44.8,4.2,67.1c0.7,5.4,1.4,10.8,2.2,16.2C290.5,154.5,292.9,153.8,292.7,152.2L292.7,152.2z"
		/>
	<path class="st1" d="M18.8,174.2c-2.9-6.4-3.2-13.6-0.8-20.2c1.1-3,3.2-5.9,6.2-7.1c2.9-1.2,6.3-0.4,8.4,2c2.1,2.3,3.7,4.9,4.8,7.8
		c1.4,3.2,2.5,6.5,3.2,9.9c1.5,6.7,2.3,13.5,2.5,20.4c0.1,1.9,0.2,3.8,0.2,5.7c0,1.3,0.5,3.8-0.4,5c-0.6,0.8-1.7,0.8-2.6,0.9
		s-1.9,0.2-2.9,0.2c-2.3,0.1-4.5,0.1-6.8,0c-1.6-0.1-1.6,2.4,0,2.5c2.3,0.1,4.5,0.1,6.8,0c1.9,0,3.8-0.2,5.7-0.8
		c3.6-1.5,2.7-6.1,2.6-9.1c-0.1-8-0.9-15.9-2.4-23.7c-0.8-3.8-2-7.6-3.5-11.2c-1.3-3.4-3.2-6.6-5.6-9.3c-2.3-2.5-5.8-3.7-9.1-3.1
		c-3.5,0.8-6.5,3.1-8.2,6.3c-4.4,7.5-3.8,17.5-0.3,25.2C17.3,176.9,19.5,175.6,18.8,174.2L18.8,174.2z"/>
	<path class="st1" d="M133.9,355.4c5.4,8,13.9,13,22.9,15.8c16,4.9,33.3,3.8,48.6-3c1.5-0.7,0.2-2.8-1.3-2.2
		c-9.3,4.1-19.4,6-29.5,5.6c-9.5-0.3-19.3-2.6-27.6-7.4c-4.4-2.5-8.2-6-11.1-10.1C135.2,352.8,133,354.1,133.9,355.4L133.9,355.4z"
		/>
	<path class="st1" d="M755.2,362.7c4.5,6.7,12.3,9.5,20,10.8c4.4,0.7,8.7,1,13.1,1.2c5,0.2,10,0.1,15-0.3c5.5-0.5,10.9-1.8,16.1-3.7
		c1.5-0.6,0.8-3-0.7-2.4c-8.9,3.4-18.3,4.3-27.8,4.1c-8-0.2-16.5-0.5-24-3.5c-3.9-1.4-7.3-4-9.7-7.3
		C756.5,360.1,754.4,361.4,755.2,362.7L755.2,362.7z"/>
	<path class="st1" d="M159.6,367.3c-20.7-8.8-32.8-29.9-36.8-51.2c-2.4-12.6-2.4-26.2,1.4-38.5c3.3-10.5,10-19.6,18.9-26
		c17.5-12.7,40.5-15.2,60.3-6.6c20.4,9.1,35.6,28.2,41.6,49.6c3.6,12.8,4.1,26.9-0.6,39.5c-4,10.8-12.5,20.2-23.3,24.4
		c-2.6,1-5.3,1.7-8,2l0.6,2.3c19.2-10.5,29.6-31.5,32.4-52.5c1.6-11.9,1.1-24.5-2.5-36c-3.3-10.5-10-19.7-19.1-25.9
		c-8.8-6-19-9.5-29.6-10.3c-11-0.7-22.1,1.5-32,6.4c-20.4,9.8-36.2,29.2-43.2,50.6c-6.5,19.8-6.1,43.8,7,61c1.6,2.1,3.4,4,5.3,5.8
		l1.8-1.8c-8.3-7.3-8.7-19.5-14.4-28.5c-3.2-5.2-8-8.3-13.9-10c-7.2-2.1-14.9-3.1-22.3-4.1c-15.7-2-31.6-2.6-47.5-1.7
		c-7.2,0.4-14.8,0.8-21.6-2c-5.8-2.4-10.9-7.2-11.6-13.7c-0.7-7,3.1-13.9,8.3-18.4c5.9-5.2,13.5-8,20.8-10.7c0.7-0.2,1-0.9,0.9-1.5
		c-0.2-0.5-0.6-0.9-1.2-0.9c-10.6-0.6-19.1-8.9-22.6-18.5c-3.8-10.7-0.9-22.2,5.2-31.4c3.7-5.4,8.3-10.1,13.6-13.9
		c0.6-0.4,0.8-1.1,0.4-1.7c-9.7-19.9-15.1-41.6-15.6-63.7c-0.6-22.1,3.3-44,11.5-64.5c4.6-11.5,10.7-22.4,18-32.4
		c1-1.3-1.2-2.5-2.2-1.3c-13.2,18.2-22.3,39-26.7,61c-4.5,22-4.3,44.6,0.3,66.5c2.6,12.3,6.8,24.3,12.4,35.6l0.4-1.7
		c-10,7.1-18.3,17.4-21,29.6c-2.6,11.5,1,23.5,9.5,31.6c4.5,4.3,10.4,6.9,16.6,7.3l-0.3-2.5c-12.2,4.5-26.2,10.2-30.2,24
		c-1.8,5.9-0.6,12.2,3.2,17c4,4.9,10.3,7.5,16.5,8.4c8,1.2,16.1,0.1,24.1-0.1c16.6-0.5,33.3,0.8,49.7,3.7c6.9,1.3,15,2.3,20.2,7.5
		c4.5,4.5,6.4,11,8.4,16.8s4.4,11.7,9.2,15.9c1.2,1,2.9-0.7,1.8-1.8c-15.3-14.5-18.2-37.2-13.7-56.9c5-21.5,18-40.2,36.5-52.3
		c9.1-5.8,19.6-9.8,30.5-10.4c10.2-0.6,20.4,1.5,29.5,6c9.1,4.4,16.5,11.5,21.4,20.3c5.7,10.7,7,23.6,6.4,35.5
		c-0.9,20.2-8.7,41.8-25.5,54.3c-2,1.5-4.1,2.8-6.4,4c-1,0.5-0.6,2.5,0.6,2.3c11.8-1.5,22-8.6,28.6-18.4c7.6-11.2,9.6-25.4,8-38.7
		c-2.8-23.7-16.5-46.1-36.8-58.7c-9.6-6.1-20.6-9.5-32-9.9c-11-0.2-22,2.3-31.8,7.5c-9.7,5-17.8,12.7-23.2,22.2
		c-6.7,12.1-8.2,26.7-7,40.3c2,22.5,12.3,46,31.9,58.3c2.4,1.5,4.8,2.8,7.4,3.8c1.5,0.6,2.7-1.5,1.3-2.2L159.6,367.3z"/>
	<path class="st1" d="M41.9,43.7C68.9,14,109.8,4.4,148.4,2.8c23-0.9,46,0.3,69,1.2c22.5,0.9,45,1,67.5,1.3
		c42.9,0.6,85.8,1.9,128.7,4.2c24.9,1.3,49.8,2.7,74.7,4c31.5,1.6,63,3,94.5,4.3l17,0.7c1.6,0.1,1.6-2.4,0-2.5
		c-34.4-1.5-68.8-2.9-103.2-4.6c-24.6-1.2-49.2-2.6-73.8-3.9c-41.6-2.2-83.3-3.7-125-4.5c-22.7-0.4-45.5-0.3-68.2-1.1
		c-23.1-0.8-46.3-2.3-69.4-2C121.6,0.5,80.7,6.6,50.1,32.3c-3.5,3-6.9,6.2-10,9.7C39.1,43.1,40.8,45,41.9,43.7L41.9,43.7z"/>
	<path class="st1" d="M599.9,19c17.5-1.2,34.4,5.6,49.2,14.3c15.2,8.9,29.1,20,42.3,31.6c13.9,12.2,27.2,25,40.7,37.8
		c13.8,13.1,27.4,26.3,41,39.7c5.2,5.1,12.4,11.5,10.2,19.7c-1,3.9-4.3,5.6-8,6.5c-4.6,1-9.2,1.7-13.9,2.2
		c-9.4,1.1-18.8,1.5-28.2,1.2c-4.6-0.1-9.1-0.4-13.6-1.1c-4.2-0.7-8.2-2-11.3-4.9c-2.8-2.8-5.1-6-6.9-9.4c-2.2-3.9-4.3-7.8-6.4-11.8
		c-4.1-8.1-7.9-16.3-11.2-24.8c-1.6-4.2-3.2-8.4-4.6-12.6c-0.7-2.1-1.4-4.2-2.1-6.4c-0.5-1.5-0.8-3.1-0.8-4.8
		c0.1-1.6,0.7-3.1,2.4-3.5c1.9-0.4,4,0.7,5.6,1.4c3.4,1.4,6.7,3.1,9.9,4.9c13,7.2,24.4,17,33.5,28.7c4.6,5.8,8.5,12,11.8,18.6
		c0.8,1.7,1.6,3.4,2.4,5.2c0.8,1.8,2,4.2,0.8,6c-0.9,1.5-2.8,2-4.4,2.5c-2.2,0.6-4.4,1.1-6.6,1.4c-4.4,0.6-8.9,0.7-13.4,0.3
		c-1.6-0.2-1.6,2.3,0,2.5c4.8,0.4,9.6,0.3,14.3-0.4c2.3-0.3,4.6-0.8,6.9-1.5c1.8-0.4,3.4-1.3,4.7-2.6c3.1-3.3,0.6-7.8-0.9-11.2
		c-1.6-3.5-3.4-7-5.3-10.3c-8-13.5-18.7-25.2-31.4-34.4c-6.4-4.6-13.2-8.5-20.5-11.6c-3.2-1.4-7.7-3.6-10.7-0.5
		c-2.3,2.4-1.8,6.4-0.9,9.4c2.7,9,5.9,17.9,9.7,26.5c3.7,8.8,7.9,17.4,12.5,25.8c4,7.3,8.2,15.3,16.4,18.4c4.2,1.6,8.8,1.9,13.3,2.2
		c5,0.4,10.1,0.5,15.1,0.5c10-0.1,20.1-1,30-2.7c4-0.7,8.3-1.3,11.4-4.1c2.5-2.6,3.7-6.2,3.3-9.8c-0.8-8.7-8.8-14.8-14.6-20.5
		c-7.2-7-14.4-14.1-21.7-21.1c-14.5-13.9-29.1-27.7-43.9-41.5c-13.6-12.6-27.5-24.9-42.8-35.4c-15-10.4-31.8-19.8-50.2-22.3
		c-4.3-0.6-8.7-0.8-13.1-0.5C598.3,16.6,598.3,19.1,599.9,19L599.9,19z"/>
</g>
<g id="Layer_2">
	<path class="st2" d="M244.5,336.8c2.1-1.1,43.6-8.4,51.1-44.6c4.2-20-5.5-39-20.6-50.4c-22.6-16.9-55.3-11.2-73.8,7.4
		c-15.8,15.9-21.7,41.7-13,59.6c10.6,22,40.6,27.5,41.4,27.5c20.1,0,4.9,8.3-31.8-15c-11.1-7-29.9-22.3-32-23.4
		c-32.3-16.2-68.1,10.8-68.1-6.9c0-31.8,23.8-16.4,22.9-32.3c-0.7-11.4-14.6-13.3-16.5-27.8c-1.3-9.7,3.3-21.3,11.5-26.1
		c9.6-5.6,17.6,2.1,23.9-2.9c9.6-7.7,6.7-38.8-8.9-43.9c-7.2-2.4-17.1,0.9-21.7,7.7c-7.8,11.4,2.3,47.1,1,38.7
		c-0.1-0.7-10.3-33.1-6.9-67.4c1.1-11.2,4.1-41.3,26.4-64.2c5.8-5.9,15-17.1,33.1-21.1c130.5-29.1,361.5-11.7,424.7-5
		c10.5,1.1,16.9,5.7,16.9,5.7c53.3,50.9,95.4,79.2,116.2,97.3c2.7,2.3-1.8,8.3-3.6,14c-2,6.2-0.6,4.3-26.7,9.4
		c-5.1,1-10.4-0.3-15.7-2.5c-13.3-5.5-24.1-18-37.2-15.1c-4,0.9-10.9,3.6-13.1,5.3c-30.6,23.4,4.7,30.5,11.2,33.2
		c11.9,5.1,45.3-10.4,49.7-1.5c1.6,3.3-3.2,14.3-6.4,33.4c-5,30.1,4.8,65.3-11.4,76.8c-32.5,23-366.9,12.7-361.3,12.5
		c41-1.6,299.1-1.6,334.3-3.5c4.6-0.2-55-13.2-115.7-13.3c-16.4,0-28.7-8.8-28.9-17c-0.8-41.8-31.5-108-6-114.3
		c24.9-6.2,64.5-4.1,131.1-3.7c4,0,2.8-9.1,25.1-7.8c7.1,0.4,18.3,12.6,24.8,13.2c23.1,2.1,19.9,0.3,28.1-5.5
		c17.9-12.7-51.1-63.4-67.2-78.2c-41.8-38.8-99.2-32.6-114.3-11.1c-10.1,14.5-19,32-19.3,65.1c-0.1,14.6-4.2,27.8-9.8,24.8
		c-10.5-5.7,1.1-48.1,3.6-80.8C494,55,334,51.8,336.5,75.1c1.3,12.9-19.4,61.5-3.3,86.2c0.3,0.4,1.6,3.5,4.2,5.5
		c26.7,20,146.4-1.7,147.2,1.1c0.9,2.9-117.2,16.8-136.5,6.9c-8.7-4.5-16.8-16.7-16.8-16.7c0,0-13.2,5-14.7-0.8
		c-4.8-18.6,17.6-67.8,5.5-85.6c-13-19.1-105-4.5-144.8,16.3c-22,11.5-30.3,42.3-22.2,57.4c13,24.3,180.4,12.1,136.4,14.1
		c-16.8,0.8,19.3-2,26.6,3.2c12.1,8.6,10.5,25.4,11.1,30.7c4,37.9-13.2,80.3,1,97.1c12.9,15.3,88.4,12.9,182.5,6.4
		c88.7-6.1,170.3,23.8,172.5,15.9c0.2-0.8,0.4-1.4-2.1-10.2c0,0-2.1-7.2-2.1-11.3c-0.1-6.1-0.3-32.2,20.8-48.7
		c20.2-15.8,51.4-14.4,70.9,4.2c18.7,17.9,22.3,47.5,9.2,67.8c-14.3,22.1-42,23.1-46.4,23.3c-5.1,0.2-25.5,0.6-41.8-14.2
		c-19.1-17.3-15.4-46.7-1.4-71.2c12.7-22.1,38.7-25.8,58.2-18.4c29.7,11.1,36.7,36.5,47.6,72.5c4.9,15.9,33,11.9,42,2.5
		c7.3-7.6,6.1-18.8,5.4-25c-0.3-2.6-5.5-16.6-4.2-11.4c0.3,1.4-4.4,10.1-4.6,10.3c-5.7,9.3-17.7,9.6-20.8,8.9
		c-20.5-5-22.3-32-10.6-42.3c6.6-5.8,20.1-4.7,26.5,2c7.3,7.7,8.1,19.9,10.1,20.2c1.8,0.3,5-8.1,7.2-21.4
		c0.9-5.7,10.1-63.6-19.7-84.4c-27.2-19.1-121.9-14.8-107-13.6c0.5,0,29-3.2,54.8,2.4c26.5,5.7,58.8,11.3,64.7,38.1
		c2.9,13-32.8,19.2-44.8,19.1c-20-0.2-42.2-4.5-42.5-13.8c-1.4-45.6,62.5-28.5,80.4-15.1"/>
</g>
</svg>
