<svg xmlns="http://www.w3.org/2000/svg" width="100" height="100"><path d="M31 17.988c-7.18 0-13 5.82-13 13v39c0 7.18 5.82 13 13 13h39c7.179 0 13-5.82 13-13v-39c0-7.18-5.82-13-13-13H31zm0 2h39c6.075 0 11 4.925 11 11v39c0 6.075-4.925 11-11 11H31c-6.075 0-11-4.925-11-11v-39c0-6.075 4.924-11 11-11zm2.838 3C27.853 22.988 23 27.84 23 33.824V67.15c0 5.985 4.853 10.838 10.838 10.838h33.324C73.147 77.988 78 73.136 78 67.15V48.488a.5.5 0 0 0-1 0V67.15c0 5.433-4.405 9.838-9.838 9.838H33.838c-5.433 0-9.838-4.405-9.838-9.838V33.824c0-5.433 4.405-9.836 9.838-9.836H67.5a.5.5 0 0 0 0-1H33.838zm2.7 7.028a2.484 2.484 0 0 0-.821.154c-1.31.487-2.748 1.102-3.862 2.334C30.742 33.735 30 35.566 30 38.318c0 3.107 1.612 6.533 3.977 9.989 2.364 3.455 5.504 6.938 8.652 10.088l.006.007.008.006c3.152 3.151 6.716 6.285 10.234 8.643 3.518 2.358 6.984 3.963 10.023 3.963 2.578 0 4.36-.741 5.586-1.844 1.227-1.103 1.889-2.53 2.38-3.85a2.473 2.473 0 0 0-.94-2.924c-1.516-1.007-4.65-2.91-6.71-4.148a4.274 4.274 0 0 0-4.423.01l-.557.338a3.266 3.266 0 0 1-3.78-.268c-1.768-1.445-4.315-3.6-6.231-5.516-1.88-1.88-3.878-4.316-5.223-6.029a3.387 3.387 0 0 1-.244-3.816l.3-.508a.5.5 0 0 0 0-.002 4.393 4.393 0 0 0-.07-4.592c-1.331-2.093-3.352-5.259-4.347-6.756a2.448 2.448 0 0 0-1.3-.976 2.494 2.494 0 0 0-.804-.117zm.02.996a1.46 1.46 0 0 1 1.25.652c.981 1.475 3.006 4.647 4.337 6.738a3.39 3.39 0 0 1 .054 3.545l-.303.51a4.39 4.39 0 0 0 .319 4.943c1.357 1.73 3.368 4.185 5.303 6.12 1.963 1.962 4.525 4.128 6.304 5.584a4.28 4.28 0 0 0 4.934.347l.556-.338a3.267 3.267 0 0 1 3.391-.008c2.056 1.237 5.202 3.147 6.67 4.124.574.381.797 1.09.555 1.742a.5.5 0 0 0 0 .002c-.47 1.263-1.072 2.52-2.112 3.455s-2.525 1.586-4.916 1.586c-2.678 0-6.03-1.49-9.466-3.793-3.437-2.304-6.964-5.401-10.084-8.52l-.008-.006-.006-.008c-3.122-3.123-6.225-6.572-8.533-9.945C32.494 44.37 31 41.072 31 38.318c0-2.577.662-4.107 1.598-5.142.936-1.036 2.193-1.595 3.466-2.069.163-.06.33-.091.495-.095zM77.5 36.566a.5.5 0 0 0-.5.5v2a.5.5 0 0 0 1 0v-2a.5.5 0 0 0-.5-.5zm0 4a.5.5 0 0 0-.5.5v4a.5.5 0 0 0 1 0v-4a.5.5 0 0 0-.5-.5z"/></svg>