<svg xmlns="http://www.w3.org/2000/svg" width="100" height="100"><path d="M30.307 17.654c-7.168 0-13 5.832-13 13v39c0 7.168 5.832 13 13 13h39c7.168 0 13-5.832 13-13v-39c0-7.169-5.831-13-13-13h-39zm0 2h39c6.065 0 11 4.935 11 11v39c0 6.065-4.935 11-11 11h-39c-6.065 0-11-4.935-11-11v-39c0-6.065 4.935-11 11-11zm2.838 2.998c-5.976 0-10.838 4.862-10.838 10.838v33.326c0 5.976 4.862 10.836 10.838 10.836H66.47c5.976 0 10.836-4.86 10.836-10.836V48.154a.5.5 0 1 0-1 0v18.662c0 5.424-4.412 9.838-9.836 9.838H33.145c-5.424 0-9.838-4.414-9.838-9.838V33.49c0-5.424 4.414-9.838 9.838-9.838h33.662a.5.5 0 0 0 0-1H33.145zm5.68 13.043c-2.088 0-3.602 1.463-3.602 3.479s1.483 3.478 3.564 3.478c2.087 0 3.604-1.462 3.604-3.49-.05-2.04-1.519-3.467-3.567-3.467zm0 1c1.52 0 2.529.98 2.566 2.48 0 1.46-1.07 2.48-2.637 2.48-1.49 0-2.531-1.02-2.531-2.48s1.07-2.48 2.601-2.48zm37.982.96a.5.5 0 0 0-.5.5v2a.5.5 0 0 0 1 0v-2a.5.5 0 0 0-.5-.5zm0 4a.5.5 0 0 0-.5.5v4a.5.5 0 0 0 1 0v-4a.5.5 0 0 0-.5-.5zm-19.23 2.876c-2.2.013-3.984.67-5.272 2.051v-1.43a.5.5 0 0 0-.5-.5H45.73a.503.503 0 0 0-.363.155.504.504 0 0 0-.137.369c.081 1.749 0 18.802 0 18.974a.5.5 0 0 0 .499.502h6.078a.5.5 0 0 0 .5-.5V53.54c0-.612.058-1.066.175-1.353.243-.6 1-1.997 2.784-1.997 2.668 0 2.957 2.707 2.957 3.875l.082 10.092a.5.5 0 0 0 .5.496h6a.5.5 0 0 0 .5-.5V53.975c0-3.33-.822-5.84-2.442-7.457-1.32-1.318-3.098-1.987-5.287-1.987zm-21.77.123a.5.5 0 0 0-.5.5v19a.5.5 0 0 0 .5.5h6a.5.5 0 0 0 .5-.5v-19a.5.5 0 0 0-.5-.5h-6zm21.754.88h.015c1.915 0 3.457.57 4.582 1.693 1.425 1.423 2.149 3.693 2.149 6.748v9.68h-5.004l-.08-9.593c0-3.005-1.515-4.873-3.955-4.873-1.66 0-3.048.98-3.711 2.62-.168.412-.25.977-.25 1.73v10.113h-5.075c.013-2.696.063-14.97.01-17.998h5.065v2.303a.522.522 0 0 0 .5.697c.208 0 .386-.166.46-.365.73-1.2 2.079-2.756 5.294-2.756zm-21.254.12h5v18h-5v-18z"/></svg>