<svg xmlns="http://www.w3.org/2000/svg" width="100" height="100"><path d="M31.012 17.988c-7.18 0-13 5.82-13 13v39c0 7.18 5.82 13 13 13h39c7.179 0 13-5.82 13-13v-39c0-7.18-5.82-13-13-13h-39zm0 2h39c6.075 0 11 4.925 11 11v39c0 6.075-4.925 11-11 11h-39c-6.075 0-11-4.925-11-11v-39c0-6.075 4.924-11 11-11zm2.836 3c-5.985 0-10.836 4.851-10.836 10.836V67.15c0 5.985 4.85 10.838 10.836 10.838h33.326c5.985 0 10.838-4.852 10.838-10.838V48.488a.5.5 0 0 0-1 0V67.15c0 5.433-4.405 9.838-9.838 9.838H33.85c-5.433 0-9.838-4.405-9.838-9.838V33.824a9.835 9.835 0 0 1 9.836-9.836h33.664a.5.5 0 0 0 0-1H33.848zM33.6 36a4.554 4.554 0 0 0-2.705.9.5.5 0 0 0-.256.211C29.645 37.956 29 39.198 29 40.6v20.8c0 1.401.644 2.644 1.637 3.489a.5.5 0 0 0 .277.228c.758.55 1.681.883 2.686.883h33.8a4.584 4.584 0 0 0 3.258-1.36.5.5 0 0 0 .272-.328A4.553 4.553 0 0 0 72 61.4V40.6c0-1.111-.413-2.118-1.072-2.914a.5.5 0 0 0-.246-.297A4.58 4.58 0 0 0 67.4 36H33.6zm43.912.566a.5.5 0 0 0-.5.5v2a.5.5 0 0 0 1 0v-2a.5.5 0 0 0-.5-.5zM33.6 37h33.8c.9 0 1.71.339 2.34.88L58.371 50.8a.5.5 0 0 0-.113.13l-2.375 2.698a6.986 6.986 0 0 1-10.608-.123l-2.148-2.559a.5.5 0 0 0-.11-.13.5.5 0 0 0-.003-.002L31.82 37.483A3.574 3.574 0 0 1 33.6 37zm-2.579 1.09L42.033 51.2l-11 12.722A3.584 3.584 0 0 1 30 61.4V40.6c0-.98.39-1.862 1.021-2.51zm39.391.539c.37.566.588 1.241.588 1.97V61.4a3.59 3.59 0 0 1-.602 1.995L59.36 51.189l11.053-12.56zm7.1 1.937a.5.5 0 0 0-.5.5v4a.5.5 0 0 0 1 0v-4a.5.5 0 0 0-.5-.5zm-18.819 11.38 11.028 12.189A3.57 3.57 0 0 1 67.4 65H33.6a3.573 3.573 0 0 1-1.764-.477l10.848-12.548 1.826 2.173c3.14 3.74 8.897 3.805 12.123.14l2.06-2.343z"/></svg>