<svg xmlns="http://www.w3.org/2000/svg" width="100" height="100"><path d="M29 17c-6.617 0-12 5.383-12 12v42c0 6.617 5.383 12 12 12h42c6.617 0 12-5.383 12-12V29c0-6.617-5.383-12-12-12H29zm0 2h42c5.514 0 10 4.486 10 10v42c0 5.514-4.486 10-10 10H29c-5.514 0-10-4.486-10-10V29c0-5.514 4.486-10 10-10zm5.5 4C28.159 23 23 28.159 23 34.5v31C23 71.841 28.159 77 34.5 77h31C71.841 77 77 71.841 77 65.5v-15a.5.5 0 0 0-1 0v15C76 71.29 71.29 76 65.5 76h-6.023v-8.346c0-2.213-1.038-4.286-2.745-5.654h.694c7.173 0 13.008-5.814 13.008-12.96 0-3.238-1.2-6.33-3.385-8.733.33-2.064.335-5.163-.6-7.965a.502.502 0 0 0-.474-.342c-4.051 0-7.472 2.689-8.899 4H44.668c-3.5-3.304-6.655-4-8.691-4a.502.502 0 0 0-.475.342c-.768 2.3-1.106 5.055-.897 7.258a13.014 13.014 0 0 0-4.084 9.441C30.521 56.187 36.355 62 43.527 62h.668c-1.32 1.032-2.267 2.451-2.629 3.996-1.997-.032-4.286-.328-5.355-1.932-2.425-3.64-3.648-3.912-5.236-3.912-.663 0-1.162.29-1.371.795-.294.708.048 1.65.917 2.52 1.172 1.173 1.174 1.171 2.368 3.558.722 1.444 2.79 3.838 8.588 3.97V76H34.5C28.71 76 24 71.29 24 65.5v-31C24 28.71 28.71 24 34.5 24h31a.5.5 0 0 0 0-1h-31zm1.838 10.008c1.868.084 4.62.842 7.697 3.77l.092.087a.5.5 0 0 0 .342.135h12.804c.127 0 .261-.058.354-.145 1.192-1.123 4.304-3.685 7.986-3.847.8 2.645.741 5.517.408 7.37a.499.499 0 0 0 .13.433 11.951 11.951 0 0 1 3.283 8.228C69.434 55.634 64.047 61 57.426 61h-2.45a.5.5 0 0 0-.208.953c2.252 1.033 3.709 3.27 3.709 5.701V76h-16v-5.5a.5.5 0 0 0-.5-.5c-4.181 0-7.092-1.216-8.194-3.422-1.243-2.485-1.267-2.531-2.554-3.818-.671-.672-.788-1.224-.702-1.43.063-.155.308-.178.448-.178 1.123 0 2.093 0 4.404 3.467C36.786 66.73 39.644 67 41.977 67a.499.499 0 0 0 .492-.42c.318-1.949 1.74-3.72 3.715-4.625a.499.499 0 0 0-.207-.955h-2.448c-6.62 0-12.008-5.366-12.008-11.96 0-3.366 1.438-6.6 3.944-8.876a.502.502 0 0 0 .162-.428c-.229-1.967.049-4.566.71-6.728zM76.5 34a.5.5 0 0 0-.5.5V38a.5.5 0 0 0 1 0v-3.5a.5.5 0 0 0-.5-.5zm0 7a.5.5 0 0 0-.5.5V48a.5.5 0 0 0 1 0v-6.5a.5.5 0 0 0-.5-.5z"/></svg>